<svg id="edf32924-6889-404f-8c65-704d1ee27e77" data-name="Layer 1" xmlns="http://www.w3.org/2000/svg" width="865.76" height="682.89" viewBox="0 0 865.76 682.89"><g id="a9ee3210-7ac3-4ede-ba9e-a9cae8d24732" data-name="freesvgillustration--background-complete--inject-369"><path d="M699.77,440.58a2.44,2.44,0,0,1,.19.44l.47,1.38c.2.6.44,1.37.73,2.17a29.45,29.45,0,0,1,.9,3,100,100,0,0,1,3.53,19.63c.25,2.1.23,4.31.34,6.61s0,4.71-.09,7.19a69,69,0,0,1-.68,7.67c-.18,1.31-.31,2.64-.52,4s-.5,2.75-.74,4.13a105.84,105.84,0,0,1-4.78,16.83,99.62,99.62,0,0,1-19.39,31.93A104.1,104.1,0,0,1,667,557.6l-3.26,2.55c-1.09.81-2.2,1.55-3.29,2.32-2.12,1.57-4.38,2.76-6.47,4.13A55.23,55.23,0,0,1,647.7,570c-2.08,1-4,2-6,2.75a101.43,101.43,0,0,1-19,6c-1,.24-2,.43-3.08.57l-2.26.36-1.38.21a3.84,3.84,0,0,1-.48,0l.47-.13,1.38-.27,2.25-.43c.88-.15,1.92-.34,3-.64a104.33,104.33,0,0,0,18.88-6.21c2-.76,3.9-1.82,6-2.76s4.13-2.23,6.27-3.44a66,66,0,0,0,6.41-4.13c1.08-.77,2.19-1.51,3.27-2.31l3.23-2.55a104.33,104.33,0,0,0,12.58-12,107.65,107.65,0,0,0,11.11-15,105.91,105.91,0,0,0,12.9-33.52c.25-1.38.51-2.76.76-4s.36-2.66.54-4c.4-2.61.47-5.17.7-7.62a59.24,59.24,0,0,0,.12-7.14,60.69,60.69,0,0,0-.28-6.58,105.57,105.57,0,0,0-3.31-19.58c-.26-1.14-.58-2.15-.85-3l-.66-2.19c-.17-.57-.31-1-.4-1.38A2.14,2.14,0,0,1,699.77,440.58Z" fill="#e0e0e0"/><path d="M703.65,428.31l2.6,2.58c7.52,3.16,13.77.38,20-4.78s8.71-18.21,8.08-22.18C725.8,405.27,708.12,423.16,703.65,428.31Z" fill="#f5f5f5"/><path d="M651,440c-.4.2-.78.59-.73,1a1.11,1.11,0,0,0,.44.56,27.38,27.38,0,0,0,18.74,5.51c6.89-.5,13.63-4,19.34-13.27C676.84,433.37,662.46,434.07,651,440Z" fill="#f5f5f5"/><path d="M639.05,404.46A31.52,31.52,0,0,0,648,428.33c6.14,6.23,21.23,10,28.53,6.07L652.2,402.78A38.29,38.29,0,0,0,639.05,404.46Z" fill="#f5f5f5"/><path d="M666.88,383.16c1.26-4.05,1.83-7,3.93-10.37a1.53,1.53,0,0,1,1.94-.59c3,1.31,6.71,2.86,9.53,4.13l3.51,2.12-4.27,12.29-9.18,1.77-5.08-3Z" fill="#e0e0e0"/><path d="M701,427.85l-16.84,6.34c-3.54,3.61-3.61,11.1-1,14.42s6.6,5.2,10.52,6.73,8,2.85,11.33,5.5c.92-4.36,3.51-8.16,5.68-12.06s4-8.32,3.18-12.72S707.27,427.17,701,427.85Z" fill="#f5f5f5"/><path d="M701,427.85a4.59,4.59,0,0,1,.84-.11,10.21,10.21,0,0,1,2.47.11,13.26,13.26,0,0,1,7.91,4.43,8.92,8.92,0,0,1,1.59,2.67,10.08,10.08,0,0,1,.51,3.36,18.46,18.46,0,0,1-1.7,7.23,80.14,80.14,0,0,1-3.89,7.25,28.21,28.21,0,0,0-3.38,8.07l-.13.56-.45-.36a27.38,27.38,0,0,0-6.68-3.63c-2.92-1.18-5.88-2.15-8.59-3.52a18,18,0,0,1-6.88-5.51,9.73,9.73,0,0,1-1.38-3.94,14.51,14.51,0,0,1,0-3.95,11.28,11.28,0,0,1,2.84-6.55h0l12.39-4.53,3.38-1.19a7.24,7.24,0,0,1,1.2-.37,8.51,8.51,0,0,1-1.15.53l-3.35,1.37-12.29,4.67.09-.07a10.87,10.87,0,0,0-2.61,6.25,14.15,14.15,0,0,0,.09,3.79,9.16,9.16,0,0,0,1.38,3.66,17.34,17.34,0,0,0,6.64,5.2c2.65,1.38,5.6,2.3,8.54,3.5a28.22,28.22,0,0,1,6.89,3.74l-.57.21a29,29,0,0,1,3.5-8.26,80,80,0,0,0,3.9-7.17,18,18,0,0,0,1.73-7,9.78,9.78,0,0,0-.44-3.18,8.65,8.65,0,0,0-1.47-2.55,13.39,13.39,0,0,0-7.59-4.49A20.69,20.69,0,0,0,701,427.85Z" fill="#e0e0e0"/><path d="M672.85,386.76a65.11,65.11,0,0,0-11.18-5.41c-1.11-.42-2.53-.74-3.37.11a3.12,3.12,0,0,0-.65,1.81,25.72,25.72,0,0,0,.33,7.83l9.74,12,7.65-8Z" fill="#ebebeb"/><path d="M695.13,375.94a18.65,18.65,0,0,0-6.19-5.39,1.13,1.13,0,0,0-1.59.06,1.27,1.27,0,0,0-.18.27,28.43,28.43,0,0,0-5.51,13.5l4.86,8.41,12.1-5.1Z" fill="#ebebeb"/><path d="M696.45,369c-3.39,6.28-6.53,16.16-5.73,23.25l5.44,39.05a18.25,18.25,0,0,0,16.61-8c3.56-5.51,4.34-13,3.31-19.47a49.72,49.72,0,0,0-7.28-18A173.11,173.11,0,0,0,696.45,369Z" fill="#f5f5f5"/><path d="M713.22,422.61l.49-.3a29.1,29.1,0,0,0,12.83-23,37.69,37.69,0,0,0-9.32-25.74,42.5,42.5,0,0,0-10.83,11l1,17.56Z" fill="#f5f5f5"/><path d="M653,388.18a1.71,1.71,0,0,0-2.22.92,1.67,1.67,0,0,0-.12.62c0,5.9-.61,12.12.33,17.9A33.86,33.86,0,0,0,659.83,426c6.29,7.05,23.81,11.77,33.55,6.89l-25-34.42A50.62,50.62,0,0,0,653,388.18Z" fill="#f5f5f5"/><path d="M698.18,396c-5-6.79-13.16-10.24-20.95-13.41a3.08,3.08,0,0,0-2-.3,3,3,0,0,0-1.47,1.54,45.33,45.33,0,0,0-6.13,21.28,30.37,30.37,0,0,0,7.3,20.66,23.79,23.79,0,0,0,20.65,7.37h0a22.6,22.6,0,0,0,7.64-11.81,31.11,31.11,0,0,0,0-13.17A30.12,30.12,0,0,0,698.18,396Z" fill="#f5f5f5"/><path d="M698.18,396a4.72,4.72,0,0,1,.5.59c.43.61.84,1.23,1.21,1.88a30.35,30.35,0,0,1,3.08,7.8,34.58,34.58,0,0,1,.93,12.89,20.45,20.45,0,0,1-2.54,7.51,22.3,22.3,0,0,1-5.59,6.71h-.08a24.11,24.11,0,0,1-24.22-11.73,31.78,31.78,0,0,1-4.13-13.31,38.61,38.61,0,0,1,1.27-12.93,51,51,0,0,1,4.39-10.9,6.17,6.17,0,0,1,1.65-2.29,2,2,0,0,1,1.48-.25,6.42,6.42,0,0,1,1.28.43c1.57.63,3.08,1.27,4.51,1.9a45.66,45.66,0,0,1,12.64,7.63,23.63,23.63,0,0,1,2.75,2.91l.62.86c.13.19.2.29.18.3a32.71,32.71,0,0,0-3.76-3.87,46.86,46.86,0,0,0-12.65-7.36c-1.37-.62-2.94-1.23-4.51-1.86-.77-.32-1.61-.63-2.23-.21a5.92,5.92,0,0,0-1.45,2.08,51.92,51.92,0,0,0-4.27,10.79,38.05,38.05,0,0,0-1.21,12.7,31,31,0,0,0,4,13,23.41,23.41,0,0,0,23.41,11.52h-.16a21.71,21.71,0,0,0,5.51-6.48,19.82,19.82,0,0,0,2.51-7.3,34.65,34.65,0,0,0-.76-12.71,31.94,31.94,0,0,0-2.88-7.8c-.45-.86-.85-1.49-1.13-1.92A3.92,3.92,0,0,1,698.18,396Z" fill="#e0e0e0"/><path d="M668.13,398.25c-.15.16-3.11-2.65-7.3-5.4s-7.9-4.46-7.8-4.67a8.86,8.86,0,0,1,2.53.93,41.08,41.08,0,0,1,10.77,7.15A8.33,8.33,0,0,1,668.13,398.25Z" fill="#e0e0e0"/><path d="M692.28,433.53a3.67,3.67,0,0,1-.6.36,10.78,10.78,0,0,1-1.83.74,21.74,21.74,0,0,1-7.22.8A41.16,41.16,0,0,1,672,433.57a32.78,32.78,0,0,1-11.49-6.44,27.34,27.34,0,0,1-7.66-10.73,38.69,38.69,0,0,1-2.3-10.51c-.26-3.06-.29-5.51-.29-7.24v-2a4,4,0,0,1,0-.69,2.18,2.18,0,0,1,.1.67,14.68,14.68,0,0,0,.1,2c.09,1.71.19,4.13.51,7.2a40.29,40.29,0,0,0,2.4,10.34,27.26,27.26,0,0,0,7.52,10.42,32.85,32.85,0,0,0,11.23,6.35,41.79,41.79,0,0,0,10.44,2,22.74,22.74,0,0,0,7.12-.56C691.41,433.92,692.25,433.46,692.28,433.53Z" fill="#e0e0e0"/><path d="M676.49,434.44a10,10,0,0,1-3.79,1.49c-2.48.68-6,.37-9.78-.25a32.35,32.35,0,0,1-9.34-3,17,17,0,0,1-2.51-1.61,3.87,3.87,0,0,1-.8-.74s1.3.86,3.54,1.9A38.17,38.17,0,0,0,663,435a28.12,28.12,0,0,0,9.55.47C675,435,676.44,434.3,676.49,434.44Z" fill="#e0e0e0"/><path d="M696.45,369a4.85,4.85,0,0,1,.56.55l1.53,1.68c.67.73,1.38,1.65,2.34,2.75s1.89,2.33,3,3.73a87.7,87.7,0,0,1,6.8,10.37,52.78,52.78,0,0,1,5.5,14.13c2.48,10.62-1.26,21.21-7.06,25.55A14.93,14.93,0,0,1,701.4,431a9.06,9.06,0,0,1-3.07-.13,25.51,25.51,0,0,0,3-.15,15.08,15.08,0,0,0,7.39-3.37c5.51-4.27,9.1-14.59,6.68-25a53.61,53.61,0,0,0-5.41-14,97,97,0,0,0-6.62-10.38c-1-1.38-2-2.75-2.86-3.79s-1.6-2-2.23-2.75l-1.38-1.76A2.52,2.52,0,0,1,696.45,369Z" fill="#e0e0e0"/><path d="M726.64,397.52a3.81,3.81,0,0,1,.09,1.17,28.18,28.18,0,0,1-.13,3.18,23.47,23.47,0,0,1-3,10.05,40.83,40.83,0,0,1-6.56,8.26,15,15,0,0,1-2.6,1.86,3.77,3.77,0,0,1-1.07.46c-.07-.12,1.38-.86,3.33-2.75a48,48,0,0,0,6.29-8.26,25.57,25.57,0,0,0,3.13-9.73C726.46,399.17,726.54,397.52,726.64,397.52Z" fill="#e0e0e0"/><path d="M701.65,446.44c-.22,0-.74-3.23-2.35-6.88s-3.58-6.35-3.4-6.47a21.33,21.33,0,0,1,5.75,13.41Z" fill="#e0e0e0"/><path d="M691.45,528.7a36.39,36.39,0,0,0,45.94-19.81C720.8,508,700.71,512.43,691.45,528.7Z" fill="#ebebeb"/><path d="M167.29,402.78a3.77,3.77,0,0,1-.26.39l-.81,1.16-1.38,1.85c-.54.73-1.16,1.58-1.78,2.57a105.29,105.29,0,0,0-9.47,17.47c-.89,1.9-1.58,4-2.41,6.14s-1.46,4.45-2.2,6.8a53.27,53.27,0,0,0-1.8,7.42c-.27,1.3-.56,2.6-.79,3.94s-.4,2.75-.61,4.13a103.73,103.73,0,0,0,14.94,69.11l2.23,3.45c.77,1.12,1.57,2.18,2.34,3.25,1.49,2.18,3.2,4.13,4.71,6a68.59,68.59,0,0,0,4.82,5.28c1.61,1.62,3.12,3.23,4.72,4.59a105.17,105.17,0,0,0,15.89,12,25.17,25.17,0,0,0,2.75,1.61l2,1.13,1.23.72a2.14,2.14,0,0,1,.4.26,3.43,3.43,0,0,1-.44-.19l-1.25-.66-2-1.08c-.94-.47-1.86-1-2.75-1.55a100,100,0,0,1-16-11.86c-1.62-1.37-3.14-3-4.79-4.58s-3.21-3.44-4.87-5.27a53.36,53.36,0,0,1-4.77-6.06c-.77-1.08-1.59-2.14-2.35-3.26l-2.26-3.46a105.43,105.43,0,0,1-8.08-15.53,107.08,107.08,0,0,1-5.7-17.9A109.35,109.35,0,0,1,144.2,472a106.44,106.44,0,0,1,1-17.48l.62-4.13c.24-1.38.54-2.65.8-3.94.47-2.6,1.25-5,1.86-7.46a55.51,55.51,0,0,1,2.24-6.89c.87-2.21,1.56-4.24,2.47-6.14a101.73,101.73,0,0,1,9.63-17.43c.65-1,1.28-1.83,1.83-2.54l1.38-1.82.88-1.1A1.69,1.69,0,0,0,167.29,402.78Z" fill="#e0e0e0"/><path d="M167.61,389.94l-3.31,1.62c-8.13.53-13.09-4.13-17.39-11s-2.32-20-.44-23.59C154.13,361,165,383.63,167.61,389.94Z" fill="#f5f5f5"/><path d="M213.56,418.1a1.15,1.15,0,0,1,.36,1.17,1,1,0,0,1-.59.41,27.34,27.34,0,0,1-19.5-.91c-6.36-2.75-11.59-8.26-14-18.83C191.31,403.44,204.69,408.76,213.56,418.1Z" fill="#f5f5f5"/><path d="M236.44,388.36a31.53,31.53,0,0,1-16.16,19.7c-7.85,3.9-23.41,2.55-28.91-3.52l33.22-22A38.35,38.35,0,0,1,236.44,388.36Z" fill="#f5f5f5"/><path d="M217,359.18c.13-4.23.55-7.22-.34-11a1.57,1.57,0,0,0-1.65-1.2c-3.29.27-7.27.54-10.34.79l-4,.87v13l8.22,4.59,5.76-1.17Z" fill="#e0e0e0"/><path d="M170.36,390.39l13.77,11.45c2.16,4.57-.2,11.69-3.74,14s-7.91,2.76-12.12,2.95-8.51.1-12.49,1.47c.55-4.42-.67-8.85-1.46-13.24s-1.07-9.18,1.13-13.07S164.62,387.71,170.36,390.39Z" fill="#f5f5f5"/><path d="M170.36,390.39a19.61,19.61,0,0,0-3.18-.84,13.31,13.31,0,0,0-8.63,1.79,7.76,7.76,0,0,0-2.23,1.92,9.52,9.52,0,0,0-1.38,2.87,18,18,0,0,0-.63,7.16,76,76,0,0,0,1.37,8,28.94,28.94,0,0,1,.62,9l-.47-.39a28.38,28.38,0,0,1,7.7-1.37c3.18-.17,6.28-.13,9.22-.51a17.57,17.57,0,0,0,8-2.76,9,9,0,0,0,2.48-3,14.07,14.07,0,0,0,1.38-3.55,10.81,10.81,0,0,0-.44-6.74V402l-10-8.46-2.75-2.34a9.86,9.86,0,0,1-1-.84,5.45,5.45,0,0,1,1,.73l2.76,2.23,10.21,8.26h0a11.26,11.26,0,0,1,.55,7.11,14.1,14.1,0,0,1-1.37,3.72,9.69,9.69,0,0,1-2.63,3.26,18.15,18.15,0,0,1-8.26,2.94c-3,.41-6.14.37-9.28.53a27.75,27.75,0,0,0-7.51,1.28l-.53.18.07-.56a28.77,28.77,0,0,0-.58-8.73,74.36,74.36,0,0,1-1.38-8.14,18.45,18.45,0,0,1,.73-7.38,10.18,10.18,0,0,1,1.57-3,8.63,8.63,0,0,1,2.38-2,13.36,13.36,0,0,1,8.92-1.64,10.79,10.79,0,0,1,2.37.71A3.16,3.16,0,0,1,170.36,390.39Z" fill="#e0e0e0"/><path d="M210.28,360.66a66.27,66.27,0,0,1,12.39-1.5c1.19,0,2.63.13,3.14,1.21a3,3,0,0,1,0,1.92,25,25,0,0,1-2.85,7.29l-13.1,8.26-4.67-10Z" fill="#ebebeb"/><path d="M192.68,343.19a18.58,18.58,0,0,1,7.59-3.09,1.37,1.37,0,0,1,1.15.13,1.44,1.44,0,0,1,.42.75,28.33,28.33,0,0,1,.77,14.56l-7.32,6.36-9.79-8.69Z" fill="#ebebeb"/><path d="M193.76,336.14c1.16,7.05.93,17.41-2.13,23.86l-17.9,35.16a18.29,18.29,0,0,1-13.09-13c-1.58-6.32.14-13.77,3.19-19.48A49.61,49.61,0,0,1,176.58,348,176.82,176.82,0,0,1,193.76,336.14Z" fill="#f5f5f5"/><path d="M160.41,381.46,160,381a29.09,29.09,0,0,1-4.7-26,37.67,37.67,0,0,1,17.18-21.31,42.09,42.09,0,0,1,6.67,14l-6.62,16.23Z" fill="#f5f5f5"/><path d="M228.51,368.44A1.67,1.67,0,0,1,230.3,370a1.64,1.64,0,0,1-.08.66c-1.87,5.59-3.35,11.66-6.13,16.83A33.9,33.9,0,0,1,209.79,402c-8.26,4.63-26.35,3.4-34-4.32l34.84-24.42A50.34,50.34,0,0,1,228.51,368.44Z" fill="#f5f5f5"/><path d="M183.27,361.13c6.89-4.8,15.79-5.41,24.18-5.88a3,3,0,0,1,2,.36,2.88,2.88,0,0,1,.89,1.93,45.34,45.34,0,0,1-1.11,22.13,30.37,30.37,0,0,1-13.6,17.14,23.83,23.83,0,0,1-21.92.28h0a22.93,22.93,0,0,1-3.33-13.59A31.46,31.46,0,0,1,174.67,371,30.34,30.34,0,0,1,183.27,361.13Z" fill="#f5f5f5"/><path d="M183.27,361.13a3.79,3.79,0,0,1-.58.48L181,363a31.78,31.78,0,0,0-5.26,6.46,34.42,34.42,0,0,0-4.84,11.77,19.62,19.62,0,0,0,0,7.71,21.49,21.49,0,0,0,3,7.9l-.12-.1a23.4,23.4,0,0,0,25.88-3.3,31,31,0,0,0,8-11,38.08,38.08,0,0,0,3-12.39,50.06,50.06,0,0,0-.54-11.6,5.54,5.54,0,0,0-.69-2.42c-.45-.61-1.37-.6-2.16-.54-1.7.08-3.33.18-4.88.29a47.32,47.32,0,0,0-14.35,3,34.58,34.58,0,0,0-4.82,2.44,2.17,2.17,0,0,1,.29-.24l.85-.59a23.34,23.34,0,0,1,3.57-1.87,45.79,45.79,0,0,1,14.43-3.11c1.55-.13,3.19-.24,4.89-.33a6.27,6.27,0,0,1,1.37,0,2,2,0,0,1,1.38.71,6.11,6.11,0,0,1,.82,2.76,50.63,50.63,0,0,1,.61,11.73,38.36,38.36,0,0,1-3,12.64,31.49,31.49,0,0,1-8.26,11.26,24.06,24.06,0,0,1-26.65,3.33h0v-.07a22.5,22.5,0,0,1-3.21-8.27,20.35,20.35,0,0,1,0-7.93,34.41,34.41,0,0,1,5-11.89,30.52,30.52,0,0,1,5.51-6.38,21.37,21.37,0,0,1,1.76-1.38A2.92,2.92,0,0,1,183.27,361.13Z" fill="#e0e0e0"/><path d="M211,373.05a8.41,8.41,0,0,1,2.35-1.29,38,38,0,0,1,6.13-2.13,41.74,41.74,0,0,1,6.39-1.15,8.6,8.6,0,0,1,2.68,0c0,.22-4,.61-8.89,1.87S211,373.26,211,373.05Z" fill="#e0e0e0"/><path d="M176.66,398.65a16,16,0,0,0,2.11,1.59,22,22,0,0,0,6.54,2.85,43,43,0,0,0,10.52,1.52,33.2,33.2,0,0,0,12.69-2.36A27.3,27.3,0,0,0,219,394.83a39.71,39.71,0,0,0,5.63-9c1.28-2.75,2.18-5.06,2.76-6.65.28-.73.53-1.37.72-1.81a2.77,2.77,0,0,1,.31-.62,2.22,2.22,0,0,1-.17.66c-.16.51-.37,1.13-.6,1.87-.57,1.62-1.38,3.95-2.63,6.76a38.17,38.17,0,0,1-5.59,9.21,27.32,27.32,0,0,1-10.73,7.65,32.7,32.7,0,0,1-13,2.36,41.33,41.33,0,0,1-10.65-1.7,21,21,0,0,1-6.48-3.16,10.93,10.93,0,0,1-1.5-1.3A3.33,3.33,0,0,1,176.66,398.65Z" fill="#e0e0e0"/><path d="M191.33,404.54c0-.1,1.19,1,3.34,2.19a31.83,31.83,0,0,0,9.18,2.67,38.44,38.44,0,0,0,9.64.41c2.45-.26,3.91-.78,3.95-.66s-.33.21-1,.45a18.31,18.31,0,0,1-2.9.71,32.14,32.14,0,0,1-9.79-.21c-3.75-.63-7.2-1.49-9.34-2.93A9.78,9.78,0,0,1,191.33,404.54Z" fill="#e0e0e0"/><path d="M193.76,336.14a2.64,2.64,0,0,1-.64.47l-1.92,1.2c-.85.51-1.86,1.17-3,1.93s-2.49,1.64-3.92,2.64a97.36,97.36,0,0,0-9.64,7.67,53.63,53.63,0,0,0-9.76,11.43c-5.67,9-5.63,20-1.82,25.81a15.05,15.05,0,0,0,5.95,5.6,25.37,25.37,0,0,0,2.76,1.13,8.71,8.71,0,0,1-2.9-.88,14.88,14.88,0,0,1-6.2-5.51c-4.13-6-4.13-17.21,1.62-26.46a52.85,52.85,0,0,1,9.84-11.56,87.68,87.68,0,0,1,9.79-7.59c1.46-1,2.76-1.86,4-2.57s2.21-1.38,3.08-1.82l2-1.09A3.83,3.83,0,0,1,193.76,336.14Z" fill="#e0e0e0"/><path d="M155.86,353.37c.11,0-.37,1.62-.88,4.22a25.86,25.86,0,0,0-.21,10.22,49.66,49.66,0,0,0,3.3,9.81c1.19,2.36,2.38,3.54,2.27,3.64s-.36-.24-.87-.8a14.79,14.79,0,0,1-1.85-2.6,40.38,40.38,0,0,1-3.53-9.89,23.24,23.24,0,0,1,.4-10.49,27.14,27.14,0,0,1,.9-3A3.79,3.79,0,0,1,155.86,353.37Z" fill="#e0e0e0"/><path d="M163.6,407.75a16.8,16.8,0,0,1,4-6.28,16.53,16.53,0,0,1,5.85-4.53c.12.18-2.63,2-5.33,5S163.81,407.86,163.6,407.75Z" fill="#e0e0e0"/><path d="M146.54,488.86a36.38,36.38,0,0,1-37-33.66C125.48,459.78,143.07,470.45,146.54,488.86Z" fill="#ebebeb"/><path d="M154.62,250.68l6.89,3.28a1.25,1.25,0,0,1,.57,1.67,1.32,1.32,0,0,1-.49.53L155,260.22a1.32,1.32,0,0,0-.48.54l-3.43,6.88a1.25,1.25,0,0,1-1.67.6,1.17,1.17,0,0,1-.53-.48L145,261.27a1.16,1.16,0,0,0-.51-.47l-6.89-3.28a1.25,1.25,0,0,1,0-2.2l6.5-4a1.37,1.37,0,0,0,.47-.54l3.44-6.88a1.25,1.25,0,0,1,1.67-.6,1.17,1.17,0,0,1,.53.48l3.9,6.49A1.24,1.24,0,0,0,154.62,250.68Z" fill="#e0e0e0"/><path d="M650.82,84l4.85,2.58a.91.91,0,0,1,.36,1.23.89.89,0,0,1-.36.36l-4.87,2.76a.78.78,0,0,0-.36.36l-2.76,4.91a.87.87,0,0,1-1.2.37.9.9,0,0,1-.38-.37l-2.63-4.8a.78.78,0,0,0-.36-.36l-4.84-2.58a.9.9,0,0,1,0-1.59l4.87-2.76a.86.86,0,0,0,.36-.37l2.75-4.9a.91.91,0,0,1,1.24-.36.89.89,0,0,1,.36.36l2.62,4.82A.82.82,0,0,0,650.82,84Z" fill="#f5f5f5"/><path d="M201.55,95l4.13,2a.77.77,0,0,1,.35,1,.84.84,0,0,1-.35.35l-4,2.45a.67.67,0,0,0-.29.31l-2.08,4.13a.76.76,0,0,1-1,.44.74.74,0,0,1-.39-.35l-2.36-3.93a.61.61,0,0,0-.32-.27l-4.13-2a.75.75,0,0,1-.37-1,.78.78,0,0,1,.37-.37l4-2.45a.74.74,0,0,0,.29-.32l2.06-4.13a.76.76,0,0,1,1-.44.82.82,0,0,1,.4.36l2.35,3.92A1,1,0,0,0,201.55,95Z" fill="#f5f5f5"/><path d="M672,608.38l6.89,3.28a1.26,1.26,0,0,1,.57,1.68,1.23,1.23,0,0,1-.49.52l-6.58,4.06a1.38,1.38,0,0,0-.48.54l-3.43,6.89a1.26,1.26,0,0,1-1.67.6,1.17,1.17,0,0,1-.53-.48l-3.91-6.5a1.35,1.35,0,0,0-.51-.47L655,615.23a1.26,1.26,0,0,1-.55-1.68,1.23,1.23,0,0,1,.48-.53l6.57-4.13a1.15,1.15,0,0,0,.48-.52l3.45-6.88a1.24,1.24,0,0,1,1.66-.6,1.16,1.16,0,0,1,.52.46l3.91,6.55A1.38,1.38,0,0,0,672,608.38Z" fill="#e0e0e0"/><path d="M462.48,655.15l6.88,3.29a1.25,1.25,0,0,1,.51,1.7,1.23,1.23,0,0,1-.51.5l-6.58,4.06a1.29,1.29,0,0,0-.48.53l-3.43,6.88a1.26,1.26,0,0,1-1.69.58,1.24,1.24,0,0,1-.51-.45l-3.9-6.5a1.13,1.13,0,0,0-.52-.47L445.37,662a1.25,1.25,0,0,1-.57-1.68,1.15,1.15,0,0,1,.48-.52l6.58-4.13a1.39,1.39,0,0,0,.49-.53l3.42-6.88a1.27,1.27,0,0,1,1.7-.58,1.25,1.25,0,0,1,.51.46l3.89,6.49A1.15,1.15,0,0,0,462.48,655.15Z" fill="#e0e0e0"/><path d="M165.71,286.9l2.83,1.38a.52.52,0,0,1,.2.71.64.64,0,0,1-.2.2l-2.75,1.67a.47.47,0,0,0-.21.21l-1.37,2.86a.53.53,0,0,1-.72.2.46.46,0,0,1-.19-.2l-1.59-2.67a.51.51,0,0,0-.22-.19l-2.82-1.38a.51.51,0,0,1-.19-.71.44.44,0,0,1,.19-.19l2.75-1.68a.55.55,0,0,0,.21-.22L163,284a.51.51,0,0,1,.71-.19.52.52,0,0,1,.2.19l1.61,2.69A.54.54,0,0,0,165.71,286.9Z" fill="#e0e0e0"/><path d="M687.8,225.43l5.58,2.69a1,1,0,0,1,.4,1.4,1.1,1.1,0,0,1-.4.4L688,233.24a1,1,0,0,0-.4.42l-2.75,5.68a1,1,0,0,1-1.36.48,1,1,0,0,1-.43-.39l-3.2-5.31a1,1,0,0,0-.42-.37l-5.59-2.69a1,1,0,0,1-.4-1.4,1,1,0,0,1,.4-.4l5.36-3.32a1.13,1.13,0,0,0,.4-.44l2.76-5.66a1,1,0,0,1,1.37-.49,1.06,1.06,0,0,1,.43.38l3.19,5.32A1,1,0,0,0,687.8,225.43Z" fill="#e0e0e0"/><path d="M695.61,331.5l5.59,2.68a1,1,0,0,1,.45,1.38,1.1,1.1,0,0,1-.38.42l-5.39,3.32a1.08,1.08,0,0,0-.38.44l-2.76,5.66a1,1,0,0,1-1.37.48,1,1,0,0,1-.43-.37l-3.19-5.32a.91.91,0,0,0-.42-.38l-5.59-2.69a1,1,0,0,1-.45-1.39,1,1,0,0,1,.39-.41l5.38-3.32a1,1,0,0,0,.38-.43l2.76-5.67a1,1,0,0,1,1.8-.09l3.19,5.31A1.18,1.18,0,0,0,695.61,331.5Z" fill="#f5f5f5"/><path d="M691.75,346a1,1,0,0,1-.89-.49l-3.2-5.31a.92.92,0,0,0-.4-.38l-5.58-2.68a1.05,1.05,0,0,1-.6-.87,1.09,1.09,0,0,1,.53-1L687,332a1,1,0,0,0,.37-.41l2.75-5.67a1.09,1.09,0,0,1,.93-.61,1,1,0,0,1,.93.5l3.2,5.31a.9.9,0,0,0,.4.37l5.59,2.76a1.06,1.06,0,0,1,.59.88,1.13,1.13,0,0,1-.53,1l-5.36,3.33a.91.91,0,0,0-.39.41l-2.75,5.66a1.05,1.05,0,0,1-.93.6Zm-.6-20.65h0a1,1,0,0,0-.88.57l-2.76,5.67a1.15,1.15,0,0,1-.41.44l-5.37,3.33a1,1,0,0,0-.42,1.32,1.06,1.06,0,0,0,.42.42l5.59,2.75a1.06,1.06,0,0,1,.44.4l3.18,5.31a1,1,0,0,0,.84.46h0a1,1,0,0,0,.87-.57l2.75-5.65a1.14,1.14,0,0,1,.41-.46L701.2,336a1.06,1.06,0,0,0,.48-.92,1,1,0,0,0-.55-.81l-5.59-2.69a1.15,1.15,0,0,1-.43-.39l-3.19-5.32a1,1,0,0,0-.77-.55Z" fill="#e0e0e0"/><path d="M709.26,253.39l3.18,1.53a.59.59,0,0,1,.23.81.54.54,0,0,1-.23.22l-3.05,1.89a.64.64,0,0,0-.24.25l-1.59,3.22a.58.58,0,0,1-.79.23.51.51,0,0,1-.23-.23l-1.82-3a.54.54,0,0,0-.23-.22l-3.2-1.53a.59.59,0,0,1-.22-.8.54.54,0,0,1,.22-.23l3.06-1.88a.53.53,0,0,0,.22-.25l1.6-3.22a.58.58,0,0,1,.8-.23.51.51,0,0,1,.23.23l1.82,3A.47.47,0,0,0,709.26,253.39Z" fill="#e0e0e0"/><path d="M251.09,58.44,254.34,60a.6.6,0,0,1,.22.81.58.58,0,0,1-.22.22l-3.07,1.89a.59.59,0,0,0-.22.25l-1.6,3.22a.57.57,0,0,1-.78.23.53.53,0,0,1-.24-.23l-1.82-3a.64.64,0,0,0-.24-.22l-3.18-1.53a.57.57,0,0,1-.24-.78.53.53,0,0,1,.24-.23l3.07-1.9a.67.67,0,0,0,.22-.25l1.59-3.22a.59.59,0,0,1,.79-.24.53.53,0,0,1,.23.24l1.82,3A.6.6,0,0,0,251.09,58.44Z" fill="#e0e0e0"/><path d="M695.48,586.61l2.83,1.37a.53.53,0,0,1,.19.72.58.58,0,0,1-.19.19l-2.76,1.68a.47.47,0,0,0-.2.22L694,593.65a.52.52,0,0,1-.71.2.48.48,0,0,1-.2-.2L691.45,591a.53.53,0,0,0-.21-.21l-2.83-1.37a.54.54,0,0,1-.2-.72.52.52,0,0,1,.2-.19l2.75-1.68a.45.45,0,0,0,.19-.22l1.38-2.87a.53.53,0,0,1,.91,0l1.61,2.69A.66.66,0,0,0,695.48,586.61Z" fill="#e0e0e0"/><path d="M183.09,583.12l2.76,1.38a.5.5,0,0,1,.22.68.54.54,0,0,1-.22.23l-2.76,1.68a.59.59,0,0,0-.19.22l-1.38,2.86a.51.51,0,0,1-.9,0L179,587.49a.45.45,0,0,0-.21-.2L176,585.92a.51.51,0,0,1-.22-.69A.52.52,0,0,1,176,585l2.75-1.68a.45.45,0,0,0,.2-.21l1.37-2.86A.53.53,0,0,1,181,580a.54.54,0,0,1,.22.23l1.61,2.68A.63.63,0,0,0,183.09,583.12Z" fill="#e0e0e0"/><polygon points="423.67 106.35 468.74 21.09 440.33 113.24 532.48 84.83 447.23 129.9 532.48 174.97 440.33 146.56 468.74 238.73 423.67 153.47 378.6 238.73 407.01 146.56 314.86 174.97 400.12 129.9 314.86 84.83 407.01 113.24 378.6 21.09 423.67 106.35" fill="#f5f5f5"/><path d="M213,144a25.67,25.67,0,0,0-23.82,16.12,25.65,25.65,0,0,1,40.9,28.66A25.65,25.65,0,0,0,213,144Z" fill="#e0e0e0"/><path d="M282.09,98.16a25.55,25.55,0,0,0-18.89,8.26,25.6,25.6,0,0,1,15,42.67,25.66,25.66,0,1,0,7.86-50.71,25.32,25.32,0,0,0-4-.31Z" fill="#ebebeb"/><path d="M646.39,151.19a25.68,25.68,0,0,1,24.88,14.51,25.64,25.64,0,0,0-41.3,22,25.19,25.19,0,0,0,2.47,9.36,25.65,25.65,0,0,1,14-45.88Z" fill="#e0e0e0"/><path d="M570.23,98.21a25.56,25.56,0,0,1,19.4,7,25.62,25.62,0,0,0-12.06,43.63,26.51,26.51,0,0,1-3.85.58,25.68,25.68,0,0,1-4.25-51.18Z" fill="#ebebeb"/><path d="M425.91,317v-7a.18.18,0,0,0-.12-.23.19.19,0,0,0-.22.13.17.17,0,0,0,0,.1v7a.19.19,0,0,0,.12.23.18.18,0,0,0,.22-.13A.17.17,0,0,0,425.91,317Z" fill="#e0e0e0"/><rect x="373.32" y="490.02" width="104.82" height="9.31" fill="#ebebeb"/><rect x="369.91" y="487.11" width="111.66" height="4.64" rx="2.24" fill="#ebebeb"/><rect x="386.65" y="484.69" width="78.18" height="3.1" fill="#ebebeb"/><rect x="389.35" y="460.69" width="72.77" height="24" fill="#ebebeb"/><rect x="383.36" y="452.76" width="84.76" height="5.04" rx="2.42" fill="#ebebeb"/><rect x="387.64" y="457.79" width="76.19" height="3.66" fill="#ebebeb"/><rect x="408.99" y="421.68" width="33.48" height="31.09" fill="#ebebeb"/><polygon points="398.55 415.18 411.28 407.65 440.19 407.65 452.94 415.18 442.71 421.68 409.24 421.68 398.55 415.18" fill="#ebebeb"/><polygon points="401.15 385.5 415.66 379 435.59 379 450.34 385.17 440.13 393.03 411.23 393.03 401.15 385.5" fill="#ebebeb"/><polygon points="406.19 363.6 421.58 357.08 430.36 357.08 445.28 363.25 435.98 370.44 416.04 370.44 406.19 363.6" fill="#ebebeb"/><polygon points="416.5 347.16 423.77 344.09 427.92 344.09 434.99 347.01 430.36 350.41 421.59 350.41 416.5 347.16" fill="#ebebeb"/><rect x="411.28" y="393.03" width="28.91" height="14.63" fill="#ebebeb"/><rect x="415.77" y="370.44" width="19.93" height="8.56" fill="#ebebeb"/><rect x="421.36" y="349.97" width="8.76" height="7.12" fill="#ebebeb"/><rect x="423.59" y="330.06" width="4.31" height="14.03" fill="#ebebeb"/><path d="M430.55,337c0,2.14-2.13,3.87-4.77,3.87S421,339.15,421,337s2.14-3.88,4.77-3.88S430.55,334.88,430.55,337Z" fill="#ebebeb"/><path d="M429.18,330.06a3.51,3.51,0,1,1-4.19-2.67,3.11,3.11,0,0,1,.74-.08A3.16,3.16,0,0,1,429.18,330.06Z" fill="#ebebeb"/><path d="M428.12,314.82a2.43,2.43,0,1,1-2.87-1.88,2.61,2.61,0,0,1,.48-.05A2.2,2.2,0,0,1,428.12,314.82Z" fill="#ebebeb"/><polygon points="424 327.68 424.52 315.64 427.03 315.64 427.47 327.68 424 327.68" fill="#ebebeb"/><path d="M478.35,491.78c0,.21-23.55.36-52.62.36s-52.6-.15-52.6-.36,23.54-.36,52.6-.36S478.35,491.59,478.35,491.78Z" fill="#e0e0e0"/><path d="M466,487c0,.2-18,.36-40.27.36s-40.25-.16-40.25-.36,18-.36,40.25-.36S466,486.84,466,487Z" fill="#e0e0e0"/><path d="M463.69,461.33c0,.2-17,.37-38,.37s-38-.17-38-.37,17-.36,38-.36S463.69,461.13,463.69,461.33Z" fill="#e0e0e0"/><path d="M464.72,457.93c0,.2-17.45.35-39,.35s-39-.15-39-.35,17.45-.36,39-.36S464.72,457.73,464.72,457.93Z" fill="#e0e0e0"/><path d="M461.49,452.82c0,.2-16,.36-35.8.36s-35.79-.16-35.79-.36,16-.36,35.79-.36S461.49,452.63,461.49,452.82Z" fill="#e0e0e0"/><path d="M442.56,421.83c0,.21-7.53.37-16.83.37s-16.8-.16-16.8-.37,7.53-.36,16.8-.36S442.56,421.64,442.56,421.83Z" fill="#e0e0e0"/><path d="M440.19,407.65q-7.21.54-14.46.36-7.23.18-14.45-.36c0-.19,6.47-.36,14.45-.36S440.19,407.46,440.19,407.65Z" fill="#e0e0e0"/><path d="M440.19,393c0,.19-6.47.36-14.46.36s-14.45-.17-14.45-.36q7.22-.54,14.45-.36Q433,392.49,440.19,393Z" fill="#e0e0e0"/><path d="M435.7,379a72.14,72.14,0,0,1-10,.36,72.06,72.06,0,0,1-10-.36,69.06,69.06,0,0,1,10-.36A69.15,69.15,0,0,1,435.7,379Z" fill="#e0e0e0"/><path d="M435.7,370.44a72.14,72.14,0,0,1-10,.36,72.06,72.06,0,0,1-10-.36,67.66,67.66,0,0,1,10-.36A67.74,67.74,0,0,1,435.7,370.44Z" fill="#e0e0e0"/><path d="M430.13,357.08a27,27,0,0,1-8.79,0A27.57,27.57,0,0,1,430.13,357.08Z" fill="#e0e0e0"/><path d="M430.13,350.68a25.94,25.94,0,0,1-8.79,0A27,27,0,0,1,430.13,350.68Z" fill="#e0e0e0"/><path d="M427.9,344.09c0,.19-1,.36-2.17.36s-2.14-.17-2.14-.36,1-.36,2.14-.36S427.9,343.89,427.9,344.09Z" fill="#e0e0e0"/></g><path d="M408.64,317.73c4.73,30.56,34.29,40.15,58.8,49.74a59.53,59.53,0,0,0-19-37.48c-10.61-9.64-24.45-15-39.82-12.26" fill="#2f2e41"/><path d="M460.32,226.24c.06.17.12.34.17.51.11.36.25.87.43,1.5l.7,2.44.45,1.57c.14.56.22,1.18.35,1.82.22,1.29.48,2.72.76,4.29s.29,3.31.46,5.16c0,.47.08.94.1,1.41s0,1,0,1.47v3.07a23.42,23.42,0,0,1-.23,3.24c-.11,1.11-.22,2.26-.35,3.42a75,75,0,0,1-11.93,30.46,83.42,83.42,0,0,1-12.62,14.75A71.57,71.57,0,0,1,421.32,313,172.49,172.49,0,0,1,402,320.77c-6.36,2.23-12.5,4.29-18.23,6.55a79.66,79.66,0,0,0-27.54,17.22,49.25,49.25,0,0,0-7.72,9.82l-1.26,2.35c-.42.75-.67,1.55-1,2.26a29.61,29.61,0,0,0-1.41,4.1A30.85,30.85,0,0,0,343.8,369a14.67,14.67,0,0,1-.14,1.55,4.68,4.68,0,0,1,0,.53,2.35,2.35,0,0,1,0-.53v-1.56a29.32,29.32,0,0,1,.91-6,32,32,0,0,1,1.4-4.14c.33-.72.57-1.54,1-2.3l1.23-2.39a49.59,49.59,0,0,1,7.71-10,79.48,79.48,0,0,1,27.67-17.43c5.75-2.3,11.89-4.38,18.23-6.61a172.75,172.75,0,0,0,19.2-7.82,71.67,71.67,0,0,0,17.12-11.5,83.28,83.28,0,0,0,12.62-14.6A75.1,75.1,0,0,0,462.67,256c.13-1.15.26-2.27.37-3.38a26.69,26.69,0,0,0,.25-3.22V245c0-.42-.07-1-.08-1.4-.16-1.84-.23-3.56-.4-5.13s-.49-3-.7-4.29c-.11-.63-.18-1.25-.32-1.81l-.41-1.57c-.24-1-.45-1.78-.63-2.46s-.28-1.15-.36-1.52A1.86,1.86,0,0,1,460.32,226.24Z" fill="#2f2e41"/><path d="M435.06,304.76c-8.23-3.56-12.79-12.86-13.26-21.81s2.38-17.69,5.35-26.15c11.88,12.12,17.81,30.11,7.91,48" fill="#2f2e41"/><path d="M465.53,212.82l4.29,4.28c12.41,5.2,22.65.62,33.07-7.91s14.37-30.05,13.34-36.6C502.1,174.86,472.91,204.31,465.53,212.82Z" fill="#85f200"/><path d="M378.7,232.15c-.65.33-1.3,1-1.2,1.62a1.64,1.64,0,0,0,.71,1,45.05,45.05,0,0,0,30.85,9c11.39-.8,22.51-6.61,32-21.89C421.28,221.14,397.54,222.33,378.7,232.15Z" fill="#85f200"/><path d="M358.9,173.46a52.08,52.08,0,0,0,14.7,39.42c10.14,10.28,35.06,16.51,47.09,10l-40-52.23A63.86,63.86,0,0,0,358.9,173.46Z" fill="#85f200"/><path d="M404.83,138.29c2.09-6.67,3-11.57,6.49-17.12a2.58,2.58,0,0,1,3.21-1c5,2.18,11.05,4.73,15.74,6.78l5.79,3.49-7,20.3-15.2,2.92-8.42-4.94Z" fill="#85f200"/><g opacity="0.5"><path d="M404.83,138.29c2.09-6.67,3-11.57,6.49-17.12a2.58,2.58,0,0,1,3.21-1c5,2.18,11.05,4.73,15.74,6.78l5.79,3.49-7,20.3-15.2,2.92-8.42-4.94Z"/></g><path d="M461.05,212.07l-27.73,10.47c-5.83,6-6,18.34-1.68,23.84S442.52,255,449,257.47s13.25,4.72,18.72,9c1.5-7.21,5.78-13.48,9.37-19.91s6.59-13.76,5.24-21C481,218.57,471.39,211,461.05,212.07Z" fill="#85f200"/><path d="M461.05,212.07a1,1,0,0,1,.35,0l1.05-.1a19.69,19.69,0,0,1,4.06.22,21.88,21.88,0,0,1,6.16,2,21.46,21.46,0,0,1,6.8,5.31,14.42,14.42,0,0,1,2.6,4.36,16.5,16.5,0,0,1,.81,5.49,30.53,30.53,0,0,1-2.8,11.84,125.08,125.08,0,0,1-6.43,12A47.09,47.09,0,0,0,468,266.57l-.12.58-.45-.37a45.9,45.9,0,0,0-11.09-6c-4.81-1.95-9.71-3.55-14.17-5.79A29.57,29.57,0,0,1,431,246a15.58,15.58,0,0,1-2.35-6.42,23.69,23.69,0,0,1-.11-6.46,18.53,18.53,0,0,1,4.61-10.73h0l20.37-7.55,5.6-2,1.41-.5a2.75,2.75,0,0,1,.49-.14,2.09,2.09,0,0,1-.48.22l-1.4.59-5.53,2.16-20.24,7.76.09-.07a18.07,18.07,0,0,0-4.39,10.4,23.32,23.32,0,0,0,.14,6.3,15.21,15.21,0,0,0,2.26,6.14,29.12,29.12,0,0,0,11,8.68c4.42,2.22,9.29,3.8,14.14,5.76a45.93,45.93,0,0,1,11.22,6.16l-.59.21A48,48,0,0,1,473,252.9,119.14,119.14,0,0,0,479.43,241a30,30,0,0,0,2.8-11.6,16.14,16.14,0,0,0-.74-5.3,13.88,13.88,0,0,0-2.48-4.21,20.81,20.81,0,0,0-6.59-5.27,22.66,22.66,0,0,0-6-2.12A28.13,28.13,0,0,0,461.05,212.07Z" fill="#2f2e41"/><path d="M414.69,144.24a107.57,107.57,0,0,0-18.46-8.93c-1.85-.69-4.2-1.22-5.61.19a5.06,5.06,0,0,0-1.08,3,41.43,41.43,0,0,0,.56,12.91l16,19.88,12.62-13.16Z" fill="#85f200"/><path d="M451.45,126.39a30.83,30.83,0,0,0-10.19-8.91,1.88,1.88,0,0,0-2.64.11,2.16,2.16,0,0,0-.29.43,46.86,46.86,0,0,0-9,22.31l8,13.87,20-8.42Z" fill="#85f200"/><g opacity="0.3"><path d="M414.69,144.24a107.57,107.57,0,0,0-18.46-8.93c-1.85-.69-4.2-1.22-5.61.19a5.06,5.06,0,0,0-1.08,3,41.43,41.43,0,0,0,.56,12.91l16,19.88,12.62-13.16Z"/></g><g opacity="0.3"><path d="M451.45,126.39a30.83,30.83,0,0,0-10.19-8.91,1.88,1.88,0,0,0-2.64.11,2.16,2.16,0,0,0-.29.43,46.86,46.86,0,0,0-9,22.31l8,13.87,20-8.42Z"/></g><g opacity="0.3"><path d="M503.61,178.78a41.32,41.32,0,0,1-9.26,16.95c-3.51,4.21-10.94,8.16-11.79,9-3.7,3.51-8.5,9-14.9,10.42l11.95-12.38,20.18-21.49Z"/></g><path d="M453.64,114.85c-5.61,10.37-10.77,26.64-9.46,38.38l9,64.5a30.12,30.12,0,0,0,27.4-13.29c5.87-9,7.16-21.51,5.46-32.13s-6.36-20.58-12-29.74A286,286,0,0,0,453.64,114.85Z" fill="#85f200"/><path d="M481.32,203.44l.76-.53c12.76-8,20.56-22.95,21.27-38,.75-15.43-5.4-30.73-15.42-42.49A70.09,70.09,0,0,0,470,140.54l1.6,29Z" fill="#85f200"/><g opacity="0.3"><path d="M412,220.12a47.92,47.92,0,0,1-27.5-16.51c-6.92-8.41-9.48-21.41-6.59-33,1.81-.17-1.1-.21,0,0l29.78,27.76Z"/></g><path d="M382,146.59a2.82,2.82,0,0,0-3.66,1.53,3.05,3.05,0,0,0-.21,1c0,9.71-1,20,.55,29.57a56.05,56.05,0,0,0,14.54,30.37c10.38,11.63,39.26,19.43,55.38,11.45l-41.32-56.81A83.44,83.44,0,0,0,382,146.59Z" fill="#85f200"/><g opacity="0.3"><path d="M444.79,221.87c-14.43-.62-28-9.24-35.77-21.37a37,37,0,0,1-2.12-37.29l2.88,2.26Z"/></g><g opacity="0.3"><path d="M446.36,150.54a55.71,55.71,0,0,1,10.69,64l-3.41,5.19c11-8.77,17.57-23,16.35-37S459.45,155.61,446.36,150.54Z"/></g><path d="M456.52,159.44c-8.22-11.22-21.75-16.91-34.61-22.11a4.92,4.92,0,0,0-3.28-.52,4.81,4.81,0,0,0-2.46,2.52c-6,10.77-10,22.83-10.12,35.16s3.8,24.89,12,34a39.39,39.39,0,0,0,34.08,12.18h0a37.62,37.62,0,0,0,12.62-19.51,51.45,51.45,0,0,0,0-21.75A49.83,49.83,0,0,0,456.52,159.44Z" fill="#85f200"/><path d="M456.52,159.44a26.6,26.6,0,0,1,2.8,4.11,50.09,50.09,0,0,1,5,12.89,56.79,56.79,0,0,1,1.47,21.21,33.72,33.72,0,0,1-1.4,6.2,36.09,36.09,0,0,1-2.8,6.13,36.69,36.69,0,0,1-9.2,11h-.09a39.89,39.89,0,0,1-31.94-9.67,41,41,0,0,1-7.7-9.6A51.72,51.72,0,0,1,406,179.83,63,63,0,0,1,408,158.57a84.35,84.35,0,0,1,7.22-18,9.93,9.93,0,0,1,2.67-3.7,3.15,3.15,0,0,1,2.28-.4,10.8,10.8,0,0,1,2.08.69c2.59,1.07,5.09,2.1,7.45,3.14,9.47,4,16.63,8.58,20.88,12.5,1.09.93,2,1.89,2.8,2.67a15.21,15.21,0,0,1,1.84,2.12l1,1.4a3.91,3.91,0,0,1,.34.49,2.66,2.66,0,0,1-.39-.43l-1.1-1.4c-.49-.58-1.13-1.25-1.87-2.08a27.37,27.37,0,0,0-2.81-2.61c-4.29-3.82-11.43-8.24-20.89-12.24q-3.56-1.51-7.46-3.08c-1.27-.52-2.71-1.08-3.85-.33a9.66,9.66,0,0,0-2.44,3.51,83.49,83.49,0,0,0-7.09,17.84,62.41,62.41,0,0,0-2,21,51.19,51.19,0,0,0,6.65,21.57,40.56,40.56,0,0,0,7.56,9.45,39.3,39.3,0,0,0,31.3,9.65H452a36.27,36.27,0,0,0,9.08-10.79,35.7,35.7,0,0,0,2.72-6,34.26,34.26,0,0,0,1.4-6.09,56.66,56.66,0,0,0-1.31-21,51.19,51.19,0,0,0-4.86-12.83c-.76-1.41-1.4-2.44-1.87-3.14l-.53-.79A1.08,1.08,0,0,1,456.52,159.44Z" fill="#2f2e41"/><path d="M406.9,163.21a39.75,39.75,0,0,1-3.42-2.8,99.27,99.27,0,0,0-8.51-6.33c-3.45-2.28-6.73-4.12-9.13-5.4a29,29,0,0,1-3.87-2.11,22.39,22.39,0,0,1,4.1,1.65,76.08,76.08,0,0,1,9.31,5.25,72.84,72.84,0,0,1,8.41,6.54A20,20,0,0,1,406.9,163.21Z" fill="#2f2e41"/><path d="M446.76,221.45a16.72,16.72,0,0,1-4,1.72,35.3,35.3,0,0,1-11.88,1.25,68.77,68.77,0,0,1-8.23-.88,61.25,61.25,0,0,1-9.24-2.23,54.22,54.22,0,0,1-18.9-10.59,45.09,45.09,0,0,1-12.62-17.61A64.35,64.35,0,0,1,378,175.79c-.45-5-.51-9.11-.54-11.93V160.6a7.1,7.1,0,0,1,0-1.13,5.33,5.33,0,0,1,.09,1.13c0,.82.08,1.9.14,3.24.11,2.81.26,6.9.77,11.91a65.51,65.51,0,0,0,4,17.12A44.91,44.91,0,0,0,395,210.16a54.53,54.53,0,0,0,18.63,10.52,62.44,62.44,0,0,0,9.13,2.26,70.09,70.09,0,0,0,8.16,1,36.77,36.77,0,0,0,11.78-1C445.35,222.15,446.71,221.36,446.76,221.45Z" fill="#2f2e41"/><path d="M420.69,222.88a6.4,6.4,0,0,1-1.6.83,27.26,27.26,0,0,1-4.67,1.48,25,25,0,0,1-7.26.54,78.88,78.88,0,0,1-8.82-1A54.86,54.86,0,0,1,383,219.85a31.85,31.85,0,0,1-4.21-2.58,11.2,11.2,0,0,1-1.4-1.16c.1-.13,2.06,1.52,5.77,3.28a60.73,60.73,0,0,0,15.32,4.55c6.16,1,11.85,1.63,15.85.72a34.34,34.34,0,0,0,4.68-1.25A14.54,14.54,0,0,1,420.69,222.88Z" fill="#2f2e41"/><path d="M453.64,114.85l.24.22.66.72,2.5,2.8c1.09,1.21,2.35,2.81,3.81,4.53s3.1,3.86,4.85,6.17a149.91,149.91,0,0,1,11.22,17.11c.88,1.71,1.88,3.42,2.71,5.26.43.91.87,1.83,1.31,2.8l1.2,2.81c.85,1.92,1.48,4,2.21,6a44.25,44.25,0,0,1,1.68,6.38c4.07,17.47-2.06,34.87-11.52,42.07a24.67,24.67,0,0,1-12.62,5.38,19.58,19.58,0,0,1-3.75,0l-1-.12h-.34a31.22,31.22,0,0,0,5-.17,25,25,0,0,0,12.28-5.51c9.19-7,15.16-24.21,11.14-41.46-.44-2.15-1.07-4.2-1.67-6.31a46.21,46.21,0,0,0-2.17-6l-1.18-2.8c-.38-.9-.87-1.85-1.31-2.8-.81-1.84-1.79-3.54-2.66-5.25a154.7,154.7,0,0,0-11-17.13c-1.72-2.33-3.28-4.44-4.74-6.23s-2.66-3.37-3.73-4.59l-2.38-2.88-.6-.76C453.68,115,453.63,114.86,453.64,114.85Z" fill="#2f2e41"/><path d="M503.48,162a11.18,11.18,0,0,1,.07,1.92,52.12,52.12,0,0,1-.31,5.23,51.21,51.21,0,0,1-1.4,7.67,32.46,32.46,0,0,1-3.66,8.82,70.94,70.94,0,0,1-10.74,13.54,26.06,26.06,0,0,1-4.21,3.12c-.53.32-1,.52-1.26.66s-.46.21-.48.18a46.29,46.29,0,0,0,5.61-4.33,78.49,78.49,0,0,0,10.46-13.55,32.86,32.86,0,0,0,3.65-8.61,58.71,58.71,0,0,0,1.48-7.56c.28-2.17.44-3.95.54-5.19A8.68,8.68,0,0,1,503.48,162Z" fill="#2f2e41"/><g opacity="0.3"><path d="M484.3,198.27a37.21,37.21,0,0,0,5.41-28.3,50.21,50.21,0,0,0-14.28-25.44c3.61,8.31,7.24,16.65,9.43,25.43a60.88,60.88,0,0,1-.56,28.31"/></g><path d="M462.22,242.76a26.92,26.92,0,0,1-.91-3.45,54.94,54.94,0,0,0-6.71-15.65,23.6,23.6,0,0,1-1.87-3,13.17,13.17,0,0,1,2.29,2.81,42,42,0,0,1,6.8,15.81A13.08,13.08,0,0,1,462.22,242.76Z" fill="#2f2e41"/><path d="M719.34,492.05a7.74,7.74,0,0,0-6-6.45c-.57-.13-1.19-.24-1.87-.35A51.6,51.6,0,0,1,697.07,481c-16.74-8-53.89-27.76-70.51-53.4a11.34,11.34,0,0,1-1.73-7.65c.7-5.32,1.13-17.5-2.91-42.1,0,0-4.89-34.21-1.63-58.64,0,0,4.89-19-1.63-31.5,0,0-10.86-19-12.49-26.06,0,0-5.59-13.23-15-16.47,0,0-10.09-9.69-16.51-10.38a4.11,4.11,0,0,0-4.39,4c-.13,3.77.32,11.88,5.82,17.81a18.29,18.29,0,0,0,4.87,3.62c2.1,1.13,6.56,4.41,8.26,12.45,0,0,.65,11.34,5.83,16.85,0,0,3.24,6.16-1,16.85L580.72,293.5s-10.71-18.32-29.28-2.14c0,0-12.85-11.66-27.85-2.62A17.47,17.47,0,0,0,510.74,284l-.72-.39a32.46,32.46,0,0,1-10.53-2.76s-8.42-3.08-13.93,0c0,0-20.25,2.59-25.11,2.76,0,0-8.59,0-4.37,7.61,0,0,7.46,14.93,31.4,10.66a6.59,6.59,0,0,1,4.34.67l6.21,3.41s-12.31,15.72-16.36,19.77c0,0-1.94,1.62-1.78,3.56,0,0-8.1-.65-8.91,3.89,0,0-1,2.42,3.09,6.89a54.89,54.89,0,0,1,7.1,9.46A203.1,203.1,0,0,1,493.37,375a102,102,0,0,1,5.3,18.15,103.75,103.75,0,0,0,7.63,22.74S524.74,470.5,547,472.34a59.1,59.1,0,0,1,27.88,12.87c1.76,1.51,3.65,2.86,5.55,4.19,9.64,6.79,36.82,27.82,56.16,61.68,0,0,10.86,24.43,39.1,14.66C675.68,565.74,726.46,543.17,719.34,492.05ZM526.74,341.21s-3,6.84-3.4,22.12l-.2,11.57c-2.33-6.47-11.25-14.94-11.25-14.94a9.09,9.09,0,0,1-4.37-6.86,25.53,25.53,0,0,0-2.12-7.55c-4.34-9.31-11.66-11.73-11.66-11.73s2.1-.53,7-3.71a11.69,11.69,0,0,1,2-1.08c1.67-.67,5.9-3.2,11.39-12.45,0,0,.88,5.79,11.54,13.3C525.67,329.88,528.33,331.59,526.74,341.21Z" fill="#f9b499"/><path d="M574.84,470a48.35,48.35,0,0,0,9.52-1.2,50.26,50.26,0,0,0,9.12-2.86,46.15,46.15,0,0,0,15.7-10.59,50.2,50.2,0,0,0,10.4-15.86A78.56,78.56,0,0,0,624.74,421c-.2,1.59-.39,3.19-.62,4.78s-.57,3.16-.93,4.73a65,65,0,0,1-2.9,9.23A49.39,49.39,0,0,1,609.89,456a45.83,45.83,0,0,1-16.13,10.6A48,48,0,0,1,574.84,470Z" fill="#f7a48b"/><path d="M599.79,468.57a35.35,35.35,0,0,0,4.4-2.19,31.6,31.6,0,0,0,4-2.72,30.8,30.8,0,0,0,3.6-3.25,44.33,44.33,0,0,0,3.17-3.76,18.84,18.84,0,0,1-2.58,4.27,20.92,20.92,0,0,1-3.57,3.53,21.9,21.9,0,0,1-4.29,2.62A17.47,17.47,0,0,1,599.79,468.57Z" fill="#f7a48b"/><path d="M624.74,429a26.89,26.89,0,0,1,.34,5.38,29.68,29.68,0,0,1-.62,5.38,21.87,21.87,0,0,1-1.77,5.14,13.1,13.1,0,0,1-3.35,4.24,19.18,19.18,0,0,0,2.64-4.56,30.3,30.3,0,0,0,1.5-5,50.82,50.82,0,0,0,.83-5.23C624.49,432.54,624.66,430.77,624.74,429Z" fill="#f7a48b"/><path d="M479.89,329.27A8.61,8.61,0,0,0,484,334a13.24,13.24,0,0,0,1.5.51,11.76,11.76,0,0,0,1.56.24c.53,0,1.05,0,1.58,0l1.57-.24a10.7,10.7,0,0,0,1.55-.4,11.61,11.61,0,0,0,1.51-.5l1.47-.63.74-.32.7-.39,1.41-.78a12.76,12.76,0,0,0,1.38-.81l2.69-1.76.07,0,.1,0a11.33,11.33,0,0,0,3.66-2.14,25.29,25.29,0,0,0,3.12-3.09c1-1.11,1.84-2.3,2.7-3.5l1.23-1.85,1.15-1.9,0,.11a9.47,9.47,0,0,1,1.29-2.7,5.17,5.17,0,0,1,2.35-2,4.24,4.24,0,0,1,3.08.11l.36.15a2,2,0,0,0,.3.11l.09,0h.15l.32,0a10.67,10.67,0,0,0,1.36-.11,37.6,37.6,0,0,0,5.5-1.23,34.94,34.94,0,0,0,5.27-2l0,0a5.17,5.17,0,0,1,1.88-.79,3.91,3.91,0,0,1,2,.1,4.3,4.3,0,0,1,1.7,1,9.19,9.19,0,0,1,.66.74l.55.82-.6-.78a6.32,6.32,0,0,0-.69-.68,4.31,4.31,0,0,0-1.68-.91,4.27,4.27,0,0,0-3.57.8h0a31.56,31.56,0,0,1-5.29,2.24,37.26,37.26,0,0,1-5.57,1.42,11.6,11.6,0,0,1-1.47.16,2.82,2.82,0,0,1-.4,0,1.19,1.19,0,0,1-.45-.08,3.34,3.34,0,0,1-.36-.13l-.31-.12a3.31,3.31,0,0,0-2.47-.08c-1.56.62-2.54,2.42-3,4.08l0,.07,0,.05-1.16,1.94-1.23,1.89c-.44.62-.87,1.24-1.33,1.84s-.93,1.19-1.45,1.75a25.21,25.21,0,0,1-3.27,3.18,12,12,0,0,1-4.06,2.29l.16-.07-2.75,1.76c-.91.61-1.93,1.05-2.89,1.57l-.72.37-.77.31-1.53.6a11,11,0,0,1-1.58.47,9.88,9.88,0,0,1-1.61.37,10,10,0,0,1-6.48-.8A8.5,8.5,0,0,1,479.89,329.27Z" fill="#f7a48b"/><path d="M510.2,306.43a31.87,31.87,0,0,1-2.88,9.25,36.21,36.21,0,0,1-5.28,8.18,35.29,35.29,0,0,1-7.21,6.54,37.5,37.5,0,0,1-4.16,2.53,19.11,19.11,0,0,1-2.2,1c-.74.32-1.49.63-2.23.93a55.37,55.37,0,0,0,8.14-5.1,44.44,44.44,0,0,0,12.25-14.45,41.84,41.84,0,0,0,2-4.34A35.94,35.94,0,0,0,510.2,306.43Z" fill="#f7a48b"/><path d="M513,306.43c1.53-.06,3-.22,4.55-.4s3-.46,4.47-.76a38.22,38.22,0,0,0,4.34-1.21,28.79,28.79,0,0,0,4.1-1.8l-.06,0a10.53,10.53,0,0,1,2.4-1.24,12.15,12.15,0,0,1,2.58-.63,11.29,11.29,0,0,1,5.17.49,15.81,15.81,0,0,0-2.56-.17,13.14,13.14,0,0,0-2.51.29,12.27,12.27,0,0,0-4.5,2l0,0,0,0a24.54,24.54,0,0,1-4.24,1.93,29.22,29.22,0,0,1-4.49,1.13,35.5,35.5,0,0,1-4.6.47A28.15,28.15,0,0,1,513,306.43Z" fill="#f7a48b"/><path d="M457,284.38a32.38,32.38,0,0,0,7.12,2.12,43.45,43.45,0,0,0,7.37.76,46.71,46.71,0,0,0,7.38-.42,68.87,68.87,0,0,0,7.25-1.45l.06,0h0a30.48,30.48,0,0,1,3.83.09,32,32,0,0,1,3.79.55,24.92,24.92,0,0,1,3.67,1.09,20,20,0,0,1,3.43,1.71l-.06,0c2.2.85,4.41,1.68,6.59,2.56-2.26-.66-4.51-1.37-6.76-2.07h0l0,0a19.73,19.73,0,0,0-3.38-1.52,24.94,24.94,0,0,0-3.6-.9,32.83,32.83,0,0,0-7.4-.52h.1c-1.22.3-2.44.64-3.67.9s-2.47.48-3.72.58a47.4,47.4,0,0,1-7.53.32A42.49,42.49,0,0,1,464,287,28.11,28.11,0,0,1,457,284.38Z" fill="#f7a48b"/><path d="M477.27,281.86a3.28,3.28,0,0,1-1.62,2.86,6.91,6.91,0,0,1-3.25,1,12.53,12.53,0,0,1-3.3-.29,14.74,14.74,0,0,1-3.11-1c1.1,0,2.16.19,3.22.26a27.36,27.36,0,0,0,3.13.07,8.15,8.15,0,0,0,2.92-.67A3.68,3.68,0,0,0,477.27,281.86Z" fill="#f7a48b"/><path d="M493.26,315.79a5.39,5.39,0,0,1,2.56,3.1,7.63,7.63,0,0,1,.08,4.13,6.63,6.63,0,0,1-.29,1l-.35,1c-.32.6-.58,1.23-.95,1.79s-.74,1.12-1.16,1.64-.88,1-1.35,1.48c.29-.6.63-1.17.94-1.75s.57-1.17.88-1.74.51-1.19.76-1.77a15.68,15.68,0,0,0,.54-1.82,8.28,8.28,0,0,0,.15-3.7A6.63,6.63,0,0,0,493.26,315.79Z" fill="#f7a48b"/><path d="M511.89,300.54a7.79,7.79,0,0,1,2.47,1.79,9.37,9.37,0,0,1,1.73,2.57,8.71,8.71,0,0,1,.78,3,8.18,8.18,0,0,1-.28,3,26.53,26.53,0,0,0-.49-2.92,14.09,14.09,0,0,0-.92-2.7A17.56,17.56,0,0,0,511.89,300.54Z" fill="#f7a48b"/><path d="M498,305.94a28.77,28.77,0,0,1,1.21-5.07,24.69,24.69,0,0,1,2.16-4.78,12.45,12.45,0,0,1,3.6-3.95,7.6,7.6,0,0,1,5.26-1.26h-.11c2-.25,4.09-.57,6.11-1,1-.21,2-.48,3-.78a10.57,10.57,0,0,0,2.84-1.24,9.69,9.69,0,0,1-2.7,1.6,22.82,22.82,0,0,1-3,1,44.42,44.42,0,0,1-6.16,1.32h-.11a6.83,6.83,0,0,0-4.6,1.15,12.45,12.45,0,0,0-3.41,3.59,27.31,27.31,0,0,0-2.38,4.51A46.16,46.16,0,0,0,498,305.94Z" fill="#f7a48b"/><path d="M492.45,291.35a10.06,10.06,0,0,1-.67,2.31,14.69,14.69,0,0,1-1.08,2.13,10.53,10.53,0,0,1-3.27,3.47c.39-.71.81-1.36,1.21-2l1.21-2C490.67,294,491.47,292.63,492.45,291.35Z" fill="#f7a48b"/><path d="M493.74,294.4a2.77,2.77,0,0,1,0,1.73,4.18,4.18,0,0,1-.82,1.56,4.46,4.46,0,0,1-3,1.57c.4-.42.81-.76,1.19-1.12s.73-.71,1.05-1.09A9.27,9.27,0,0,0,493.74,294.4Z" fill="#f7a48b"/><path d="M493.74,333.82a20.4,20.4,0,0,1,5,3,24.94,24.94,0,0,1,7.15,9.16A27.72,27.72,0,0,1,507,348.7c.32.93.54,1.89.81,2.83v.1A9.56,9.56,0,0,0,508,354a9.25,9.25,0,0,0,.82,2.24,7.54,7.54,0,0,0,1.39,1.92,8.73,8.73,0,0,0,1.88,1.43l0,0,0,0a58.18,58.18,0,0,1,6.47,6.94,37.92,37.92,0,0,1,2.71,3.92c.42.68.78,1.39,1.14,2.1l1.08,2.08-.91.23c-.08-5.69.11-11.38.54-17.06.21-2.84.52-5.67,1-8.49a31.75,31.75,0,0,1,2.23-8.32l0,.1a30.88,30.88,0,0,0,.57-5.75,14.27,14.27,0,0,0-.28-2.85,4.73,4.73,0,0,0-1.17-2.45l0,0a40.17,40.17,0,0,1-3.53-2.8,39.76,39.76,0,0,1-3.21-3.15,20.22,20.22,0,0,1-4.65-7.59A21,21,0,0,0,519,324a40.61,40.61,0,0,0,3.28,3c1.14.94,2.32,1.86,3.54,2.68h0v0a5.22,5.22,0,0,1,1.39,2.73,15,15,0,0,1,.35,3,31.7,31.7,0,0,1-.47,5.91v0l0,.06a32.54,32.54,0,0,0-2.07,8.11c-.42,2.79-.71,5.61-.91,8.43s-.32,5.65-.4,8.48-.12,5.67-.1,8.5l0,2-.93-1.82-1.07-2.1c-.34-.7-.69-1.39-1.09-2a38.11,38.11,0,0,0-2.62-3.83,57.9,57.9,0,0,0-6.32-6.87l.07.06a10,10,0,0,1-2-1.62,8.42,8.42,0,0,1-1.48-2.12,9.8,9.8,0,0,1-.84-2.44,10.54,10.54,0,0,1-.19-2.58v.1c-.25-.93-.45-1.87-.74-2.78a28.07,28.07,0,0,0-1-2.69,26.08,26.08,0,0,0-2.86-5,24.54,24.54,0,0,0-3.93-4.22A21.08,21.08,0,0,0,493.74,333.82Z" fill="#f7a48b"/><path d="M516.64,316.58a43.08,43.08,0,0,1,4.77,5,41.87,41.87,0,0,1,4,5.62,41.44,41.44,0,0,1-4.76-5A42.32,42.32,0,0,1,516.64,316.58Z" fill="#f7a48b"/><path d="M532.53,310.93c1,1.22,1.88,2.5,2.76,3.75s1.73,2.47,2.72,3.72a6.55,6.55,0,0,1-2-1.33,12.14,12.14,0,0,1-1.55-1.82,13.65,13.65,0,0,1-1.18-2.07A9.62,9.62,0,0,1,532.53,310.93Z" fill="#f7a48b"/><path d="M551.44,291.36a31,31,0,0,0-6.23,6.46,22.76,22.76,0,0,0-2.23,3.89,17.73,17.73,0,0,0-1.25,4.27h0c-.51,2.15-1.09,4.28-1.68,6.42s-1.24,4.24-1.93,6.34-1.42,4.2-2.26,6.25a36,36,0,0,1-3,6v0l0,0a33.8,33.8,0,0,0-3.17,4.23,17.08,17.08,0,0,0-2.2,4.73,6.12,6.12,0,0,0-.19,2.47,3.54,3.54,0,0,0,1.1,2.06,4.9,4.9,0,0,0,1,.68,4.46,4.46,0,0,0,1.17.38,12.88,12.88,0,0,0,2.56.3,15.69,15.69,0,0,0,5.13-.81,22.16,22.16,0,0,0,2.46-.93c.76-.42,1.57-.76,2.31-1.25a37,37,0,0,0,8.08-6.8l-.05.07a93.83,93.83,0,0,0,4.65-8.68,52.11,52.11,0,0,0,3.38-9.2l0-.23.22-.08a42.53,42.53,0,0,0,4.4-1.89,22,22,0,0,0,2.07-1.17,9.57,9.57,0,0,0,1.83-1.43l.53-.55.1.76a36.52,36.52,0,0,0,2.14,8.45,22.5,22.5,0,0,0,4.48,7.42A18.32,18.32,0,0,0,576.5,331a9.19,9.19,0,0,0,1.84,1.13,18,18,0,0,0,4.19,1.23,12.28,12.28,0,0,0,4.36,0,8.29,8.29,0,0,0,3.9-1.92,8.26,8.26,0,0,1-3.88,2,12.57,12.57,0,0,1-4.41.14,18.74,18.74,0,0,1-4.29-1.14,12.66,12.66,0,0,1-3.65-2.58,22.69,22.69,0,0,1-4.71-7.52,36.83,36.83,0,0,1-2.3-8.59l.62.21a10.27,10.27,0,0,1-1.94,1.57,24.05,24.05,0,0,1-2.13,1.24,38.69,38.69,0,0,1-4.47,2l.27-.3a52.35,52.35,0,0,1-3.4,9.39,93.7,93.7,0,0,1-4.66,8.8l0,0,0,0a37.91,37.91,0,0,1-8.27,7c-.76.5-1.61.86-2.41,1.29a23.48,23.48,0,0,1-2.58,1,16.61,16.61,0,0,1-5.43.83,13.7,13.7,0,0,1-2.77-.33,5.57,5.57,0,0,1-1.37-.47,5.47,5.47,0,0,1-1.2-.83,4.46,4.46,0,0,1-1.38-2.6,7.12,7.12,0,0,1,.22-2.84,18.39,18.39,0,0,1,2.33-5,34.39,34.39,0,0,1,3.29-4.34l0,.06a36.62,36.62,0,0,0,3-5.82c.86-2,1.63-4.08,2.34-6.17,1.43-4.16,2.67-8.4,3.79-12.66v0a18.63,18.63,0,0,1,1.39-4.34,23.91,23.91,0,0,1,2.36-3.88A31.31,31.31,0,0,1,551.44,291.36Z" fill="#f7a48b"/><path d="M530.5,345.18a30.25,30.25,0,0,0,7.76-3.64,29.42,29.42,0,0,0,6.42-5.61,27,27,0,0,0,4.49-7.2,31.15,31.15,0,0,0,1.45-4,14.49,14.49,0,0,0,.49-2.07l.44-2.08v.07a11.69,11.69,0,0,1,.71-3.37,14.36,14.36,0,0,1,1.51-3,15.48,15.48,0,0,1,2.14-2.63,18.51,18.51,0,0,1,2.6-2.16l-.07.06A29.93,29.93,0,0,1,563,306a19.33,19.33,0,0,1,5.24-2.35,9.36,9.36,0,0,1,5.82.15,5.1,5.1,0,0,1,2.22,2c.47.88.84,1.69,1.28,2.53a100.5,100.5,0,0,0,5.61,9.7,41.8,41.8,0,0,0,3.34,4.49,12.46,12.46,0,0,0,4.32,3.48,12,12,0,0,1-4.51-3.3,42.59,42.59,0,0,1-3.54-4.4,100.61,100.61,0,0,1-5.89-9.62c-.44-.81-.89-1.7-1.32-2.46a4.45,4.45,0,0,0-1.88-1.69,3.61,3.61,0,0,0-1.23-.33,6.57,6.57,0,0,0-1.33-.1h-.67l-.67.1a8.84,8.84,0,0,0-1.32.27,23.36,23.36,0,0,0-9.3,5.68l0,0,0,0a20.12,20.12,0,0,0-2.47,2,14.85,14.85,0,0,0-2,2.45,13.27,13.27,0,0,0-1.43,2.84,10.34,10.34,0,0,0-.68,3.05v.06h0l-.46,2.13a16.81,16.81,0,0,1-.52,2.12,27.94,27.94,0,0,1-1.54,4.09,27.3,27.3,0,0,1-4.77,7.27,27.91,27.91,0,0,1-6.69,5.52A28.64,28.64,0,0,1,530.5,345.18Z" fill="#f7a48b"/><path d="M594.1,306.43c-.57,1.67-1.09,3.35-1.52,5.06s-.84,3.41-1.14,5.13a40,40,0,0,0-.58,10.4,15.47,15.47,0,0,0,12.41,14.74,23.48,23.48,0,0,1-2.58-.6l-1.27-.41-1.23-.54a14.86,14.86,0,0,1-4.33-3.19,17.17,17.17,0,0,1-4-9.9,34.91,34.91,0,0,1,.82-10.65A47.74,47.74,0,0,1,594.1,306.43Z" fill="#f7a48b"/><path d="M571.19,236.38a67.18,67.18,0,0,1,7.88,4.56,74.31,74.31,0,0,1,7.26,5.49c1.17,1,2.27,2,3.38,3.06s2.18,2.13,3.16,3.3a61.91,61.91,0,0,1,5.58,7.21h0v0l14.13,29.47,0,0v0a49.93,49.93,0,0,1,.44,12.86c-.18,2.16-.57,4.26-.79,6.37s-.45,4.24-.61,6.37a237,237,0,0,0-.64,25.56c1.12,17,2.79,34,4.36,51.07a143.78,143.78,0,0,1-1.27,25.65c-1.25,8.47-3.33,16.92-7.26,24.61a40,40,0,0,1-7.53,10.45,29.45,29.45,0,0,1-10.93,6.78,33.34,33.34,0,0,1-6.31,1.44,40.88,40.88,0,0,1-6.45.22A55.92,55.92,0,0,1,563,458.66l.33-.12a21.35,21.35,0,0,1-6,5.68,17.41,17.41,0,0,1-3.73,1.82,16.08,16.08,0,0,1-4.06.87,18.15,18.15,0,0,1-8.12-1.32,30.58,30.58,0,0,1-7.09-4.17,62.81,62.81,0,0,1-11.15-12,133.84,133.84,0,0,1-8.76-13.84,134.86,134.86,0,0,0,8.91,13.73,62.57,62.57,0,0,0,11.23,11.81,30.35,30.35,0,0,0,7,4,18,18,0,0,0,7.91,1.24c5.39-.46,10.25-3.83,13.33-8.17l.13-.18.2.06a55.74,55.74,0,0,0,12.52,2.21,39.47,39.47,0,0,0,6.34-.24,32.24,32.24,0,0,0,6.16-1.43A28.52,28.52,0,0,0,598.79,452a39.23,39.23,0,0,0,7.35-10.28c3.84-7.58,5.87-16,7.08-24.37a142.87,142.87,0,0,0,1.15-25.49c0-1-.09-2.13-.19-3.16l-.34-3.19-.61-6.38-1.11-12.77-1-12.78-.5-6.39c-.14-2.12-.39-4.26-.39-6.41a238.63,238.63,0,0,1,.75-25.65c.17-2.13.39-4.26.64-6.39s.63-4.24.82-6.35a50.27,50.27,0,0,0-.38-12.68l0,.07-14-29.55v0a61.9,61.9,0,0,0-5.47-7.24c-1-1.16-2.06-2.21-3.1-3.31s-2.18-2.11-3.34-3.09A76.06,76.06,0,0,0,579,241,68.45,68.45,0,0,0,571.19,236.38Z" fill="#f7a48b"/><path d="M564.69,338.11a11.65,11.65,0,0,1,4.5-4.58l.71-.41.76-.32c.26-.1.51-.22.77-.31l.79-.22.8-.21.82-.1a9.17,9.17,0,0,1,1.65-.12l1.65.05,1.62.28c.27.05.55.08.81.15l.78.24,1.57.5c1,.42,2,.86,3,1.34s1.87,1.09,2.79,1.65l-.23-.06a18.69,18.69,0,0,1,4.23.42,10.71,10.71,0,0,1,3.84,1.7,11.52,11.52,0,0,0-3.93-1.22,18.63,18.63,0,0,0-4.08-.14h-.11l-.12-.06c-.95-.49-1.87-1-2.8-1.5s-1.93-.83-2.89-1.23l-1.5-.45-.75-.23c-.25-.07-.51-.1-.76-.15l-1.53-.28-1.55-.07a13,13,0,0,0-6,1.3,14.4,14.4,0,0,0-2.63,1.7A13.66,13.66,0,0,0,564.69,338.11Z" fill="#f7a48b"/><path d="M593.81,332.29c1.08.94,2,1.92,2.93,2.88.46.5.94,1,1.41,1.45s1,.95,1.44,1.49a8.07,8.07,0,0,1-3.57-2.24,11.66,11.66,0,0,1-1.31-1.66A7.84,7.84,0,0,1,593.81,332.29Z" fill="#f7a48b"/><path d="M598.44,294.4a6.07,6.07,0,0,0,2.25,1.35,12.64,12.64,0,0,0,2.51.63c.86.16,1.74.22,2.63.31s1.79.1,2.72.21a11.48,11.48,0,0,1-2.71.57c-.47,0-.93,0-1.4,0a13.27,13.27,0,0,1-1.4-.14,8,8,0,0,1-2.69-.92A4.06,4.06,0,0,1,598.44,294.4Z" fill="#f7a48b"/><path d="M608.55,294.4a7.17,7.17,0,0,1-2.32,1,8.12,8.12,0,0,1-2.56.19,5.83,5.83,0,0,1-2.48-.82,4.24,4.24,0,0,1-1.6-2,7.9,7.9,0,0,0,2,1.3,8.79,8.79,0,0,0,2.21.52,15.19,15.19,0,0,0,2.34,0C606.91,294.55,607.72,294.48,608.55,294.4Z" fill="#f7a48b"/><path d="M589,264.42a6.44,6.44,0,0,0,3.93.38,10.75,10.75,0,0,0,1.89-.63l.94-.44c.31-.16.62-.33,1-.47a8.14,8.14,0,0,1-.68.87,9.65,9.65,0,0,1-.84.72,5.88,5.88,0,0,1-2.07.93,4.71,4.71,0,0,1-2.3-.09A3.54,3.54,0,0,1,589,264.42Z" fill="#f7a48b"/><path d="M590.79,263.26a10.78,10.78,0,0,0,2.55-.58,4.87,4.87,0,0,0,1.08-.57c.35-.23.67-.53,1.09-.84a2.59,2.59,0,0,1-.55,1.4,2.85,2.85,0,0,1-1.25.94,3.22,3.22,0,0,1-1.53.2A2.64,2.64,0,0,1,590.79,263.26Z" fill="#f7a48b"/><path d="M570.38,295.31a2.92,2.92,0,0,1,1.07,1.31,5.5,5.5,0,0,1,.42,1.64,6.16,6.16,0,0,1-.1,1.66,4.65,4.65,0,0,1-.59,1.55,13.36,13.36,0,0,1-.19-1.6c0-.52-.06-1-.12-1.52A16.85,16.85,0,0,0,570.38,295.31Z" fill="#f7a48b"/><path d="M556.11,308.15a4.28,4.28,0,0,1,1.84,1.3,7.13,7.13,0,0,1,1.19,1.93,8.33,8.33,0,0,1,.56,2.18,7.26,7.26,0,0,1-.06,2.23c-.28-.7-.48-1.39-.7-2.06s-.44-1.33-.72-2A13.86,13.86,0,0,0,556.11,308.15Z" fill="#f7a48b"/><path d="M538,324.44a8.76,8.76,0,0,1,2.8,2.69,8.47,8.47,0,0,1,1.4,3.71,8.34,8.34,0,0,1-.45,3.94,10.71,10.71,0,0,1-.84,1.78,17.86,17.86,0,0,1-1.16,1.55c.22-.62.52-1.17.72-1.77l.29-.89a4.5,4.5,0,0,0,.24-.89l.19-.89.08-.91a6.76,6.76,0,0,0,0-.9,4.4,4.4,0,0,0-.07-.89,10,10,0,0,0-1.08-3.45A15.29,15.29,0,0,0,538,324.44Z" fill="#f7a48b"/><path d="M546.17,301.47a2.06,2.06,0,0,1,1.5.35,3.74,3.74,0,0,1,1.1,1.07,5.09,5.09,0,0,1,.63,1.36,4.11,4.11,0,0,1,.14,1.49,9.7,9.7,0,0,1-.86-1.17c-.26-.37-.48-.76-.74-1.11a11.31,11.31,0,0,0-.77-1A5.67,5.67,0,0,0,546.17,301.47Z" fill="#f7a48b"/><path d="M539.28,322.84a3.09,3.09,0,0,1,1.54.44,4.88,4.88,0,0,1,1.26,1,4.67,4.67,0,0,1,1.21,2.9c-.4-.39-.7-.78-1-1.15l-.94-1.09C540.7,324.23,540.05,323.57,539.28,322.84Z" fill="#f7a48b"/><path d="M556.11,327.65a19.77,19.77,0,0,0,4.09,2,13.71,13.71,0,0,0,4.37.8,11.58,11.58,0,0,0,4.34-.75,16.47,16.47,0,0,0,2.07-.91c.69-.34,1.29-.81,2-1.18a20.12,20.12,0,0,1-1.73,1.59,10.93,10.93,0,0,1-2,1.22,10.09,10.09,0,0,1-4.66,1A11.9,11.9,0,0,1,556.11,327.65Z" fill="#f7a48b"/><path d="M554.47,331a24.28,24.28,0,0,1,8.45-.77,19.09,19.09,0,0,1,4.22.82,11.31,11.31,0,0,1,3.76,2,24.61,24.61,0,0,0-8.06-1.84c-1.38-.14-2.76-.17-4.16-.21S555.89,331,554.47,331Z" fill="#f7a48b"/><path d="M567.91,313.76a5.63,5.63,0,0,0,1.46-1.46,7.7,7.7,0,0,0,.9-1.79,17.21,17.21,0,0,0,.61-2c.07-.34.17-.68.25-1s.16-.7.28-1.06a10,10,0,0,1,.21,1.09c0,.37,0,.74,0,1.11a7.32,7.32,0,0,1-.46,2.21,5.32,5.32,0,0,1-1.24,1.94A3.24,3.24,0,0,1,567.91,313.76Z" fill="#f7a48b"/><path d="M573.79,310.11a3.23,3.23,0,0,1-.59,1.43,4.27,4.27,0,0,1-1.13,1.07,3.68,3.68,0,0,1-1.45.59,3,3,0,0,1-1.55-.08c.46-.26.89-.43,1.3-.66a10.87,10.87,0,0,0,1.15-.68C572.28,311.3,573,310.73,573.79,310.11Z" fill="#f7a48b"/><path d="M570.38,318.87c.64,1.15,1.32,2.26,2,3.35s1.41,2.15,2.18,3.15a27.42,27.42,0,0,0,2.52,2.86,23.11,23.11,0,0,0,3,2.39,10.73,10.73,0,0,1-3.53-1.8,16.07,16.07,0,0,1-2.81-2.84A18.68,18.68,0,0,1,570.38,318.87Z" fill="#f7a48b"/><path d="M583.43,331.27a2.79,2.79,0,0,0,1,0l1-.1a8.11,8.11,0,0,1,1,0,4.35,4.35,0,0,1,1.09.14,3.27,3.27,0,0,1-2,.89,3.13,3.13,0,0,1-1.13-.11A1.26,1.26,0,0,1,583.43,331.27Z" fill="#f7a48b"/><path d="M523.14,374.9a28.18,28.18,0,0,0,3.2,5.12,33.3,33.3,0,0,0,4,4.43,36.45,36.45,0,0,0,10,6.58,22.18,22.18,0,0,1,5.07,3.54,21.28,21.28,0,0,1,4,4.72A18.89,18.89,0,0,1,552.1,411a21.5,21.5,0,0,0-.87-5.94,18,18,0,0,0-2.52-5.38,22.94,22.94,0,0,0-8.8-7.77A35.39,35.39,0,0,1,529.85,385,28.51,28.51,0,0,1,523.14,374.9Z" fill="#f7a48b"/><path d="M532,386.42a33.59,33.59,0,0,1,15.28,7,23.87,23.87,0,0,1,5.49,6.48,21.47,21.47,0,0,1,2.68,8c-.23-.67-.45-1.33-.65-2l-.31-1-.44-.95c-.29-.63-.55-1.27-.85-1.89l-1.08-1.77a27.49,27.49,0,0,0-5.48-6.11,39.51,39.51,0,0,0-6.92-4.54,37,37,0,0,0-3.78-1.75A38.6,38.6,0,0,0,532,386.42Z" fill="#f7a48b"/><path d="M564.69,340.59a22.25,22.25,0,0,0-1.27,4.14A21.47,21.47,0,0,0,563,349a17.89,17.89,0,0,0,.49,4.25,16.44,16.44,0,0,0,1.54,4l0-.05a43.74,43.74,0,0,1,6.35,12.93,34.59,34.59,0,0,1,1.47,14.33,28.62,28.62,0,0,1-1.83,7,30.88,30.88,0,0,1-3.5,6.32q-2,2.94-3.86,6a25.93,25.93,0,0,0-3,6.47,24,24,0,0,1,2.62-6.65c1.11-2.13,2.38-4.16,3.67-6.17a30.33,30.33,0,0,0,4.95-13.09,27.57,27.57,0,0,0,0-7,44.49,44.49,0,0,0-1.42-6.92,46.34,46.34,0,0,0-6-12.76l0,0h0a16.93,16.93,0,0,1-1.48-4.18,16.61,16.61,0,0,1-.36-4.39A21.12,21.12,0,0,1,564.69,340.59Z" fill="#f7a48b"/><path d="M578.76,366.74a46.52,46.52,0,0,1-.56,6.34,51.36,51.36,0,0,1-1.3,6.25,33.28,33.28,0,0,1-2.22,6,14.17,14.17,0,0,1-3.78,5.13c.32-.43.64-.84,1-1.25l.8-1.35A23.55,23.55,0,0,0,574,385a55.38,55.38,0,0,0,2-6c.56-2,1-4.07,1.51-6.12.24-1,.45-2.06.66-3.1Z" fill="#f7a48b"/><path d="M595.51,358.8a36.13,36.13,0,0,1-1.74,12.36A27.34,27.34,0,0,1,587.38,382a23,23,0,0,1-5.07,3.82c-.91.55-1.83,1-2.69,1.53s-1.68,1.16-2.52,1.77c-1.67,1.22-3.3,2.51-4.89,3.84s-3.14,2.71-4.66,4.14a67.72,67.72,0,0,1,9.08-8.59,30.26,30.26,0,0,1,2.53-1.89c.88-.59,1.85-1,2.7-1.59a22.63,22.63,0,0,0,4.81-3.73A27.58,27.58,0,0,0,593,370.91a38,38,0,0,0,1.66-6A39.8,39.8,0,0,0,595.51,358.8Z" fill="#f7a48b"/><path d="M575.24,347.62a21.24,21.24,0,0,1,3.81,7.43,26.27,26.27,0,0,1,.88,4.1,22.47,22.47,0,0,1,.17,4.18l-.94-4c-.31-1.33-.68-2.65-1.07-4s-.83-2.6-1.3-3.89S575.82,348.89,575.24,347.62Z" fill="#f7a48b"/><path d="M563.53,338.11c-.67,1.63-1.4,3.15-2,4.72-.34.78-.64,1.57-1,2.36l-.9,2.43a11,11,0,0,1,.93-5.18,13.65,13.65,0,0,1,1.25-2.32A9.69,9.69,0,0,1,563.53,338.11Z" fill="#f7a48b"/><path d="M565.8,346.39c.18,1.62.23,3.17.44,4.7a16.7,16.7,0,0,0,.42,2.24,9.6,9.6,0,0,0,.89,2.15,4.4,4.4,0,0,1-1.62-1.87,7.85,7.85,0,0,1-.68-2.39,10.66,10.66,0,0,1,0-2.46A8.46,8.46,0,0,1,565.8,346.39Z" fill="#f7a48b"/><path d="M569.66,358.8a27.78,27.78,0,0,1,3.81,6.51,21.54,21.54,0,0,1,1.17,3.62,9,9,0,0,1,.19,3.8,16.79,16.79,0,0,0-.94-3.59c-.41-1.15-.85-2.3-1.35-3.44C571.6,363.41,570.56,361.16,569.66,358.8Z" fill="#f7a48b"/><path d="M545.88,367.71a7.85,7.85,0,0,1,1.36-4.13,13.9,13.9,0,0,1,2.93-3.28,20,20,0,0,1,3.66-2.39c.65-.31,1.32-.61,2-.88s1.37-.47,2.07-.66c-.61.4-1.24.73-1.85,1.1l-1.82,1.12a36,36,0,0,0-3.4,2.48,19.07,19.07,0,0,0-2.94,2.95,13.5,13.5,0,0,0-1.16,1.74A7.35,7.35,0,0,0,545.88,367.71Z" fill="#f7a48b"/><path d="M549,365.76c-.2,1.23-.4,2.34-.57,3.48l-.26,1.71a17.42,17.42,0,0,1-.3,1.78,6.51,6.51,0,0,1-.43-3.65,7,7,0,0,1,.52-1.78A4.56,4.56,0,0,1,549,365.76Z" fill="#f7a48b"/><path d="M539.91,367.71a33.32,33.32,0,0,0,4.45,10.18,21.84,21.84,0,0,0,8,7.51,21.48,21.48,0,0,1,7.34,8.6,18.89,18.89,0,0,1,1.43,11.22v-.07a45.11,45.11,0,0,1-3,12.24,58.61,58.61,0,0,0-2.13,12.2,43,43,0,0,0,.85,12.35,29.84,29.84,0,0,0,5,11.31,29,29,0,0,1-5.52-11.19,43.88,43.88,0,0,1-1.15-12.51,56.42,56.42,0,0,1,2-12.43c.7-2,1.36-3.92,1.85-5.95a38.38,38.38,0,0,0,1-6.06V405a17.86,17.86,0,0,0-1.28-10.67,19.31,19.31,0,0,0-2.93-4.62,22.22,22.22,0,0,0-4-3.74,22.29,22.29,0,0,1-8-7.87A32.34,32.34,0,0,1,539.91,367.71Z" fill="#f7a48b"/><path d="M552.13,417.28a19,19,0,0,1,.33,3.73,18.24,18.24,0,0,1-.33,3.72,9.6,9.6,0,0,1-.67-3.72A9.44,9.44,0,0,1,552.13,417.28Z" fill="#f7a48b"/><path d="M508.29,391.2a12.77,12.77,0,0,1,6.39-5.57,12.54,12.54,0,0,1,2.08-.65,12.12,12.12,0,0,1,2.15-.25,11.85,11.85,0,0,1,4.23.64,22.94,22.94,0,0,0-4.16.14,15.1,15.1,0,0,0-3.93,1,18,18,0,0,0-3.58,1.95A22.5,22.5,0,0,0,508.29,391.2Z" fill="#f7a48b"/><path d="M508.29,386.42a5.73,5.73,0,0,1,1.14-1.4,7.53,7.53,0,0,1,1.44-1.06,6.37,6.37,0,0,1,1.69-.68,3.66,3.66,0,0,1,1.83,0,29.69,29.69,0,0,0-3,1.57A28.47,28.47,0,0,1,508.29,386.42Z" fill="#f7a48b"/><path d="M518,383.26a12.79,12.79,0,0,1,2.64-.61,22,22,0,0,1,2.69-.18,16.72,16.72,0,0,1,5.33.79c-.91.11-1.8.14-2.68.17s-1.77,0-2.65,0A53.23,53.23,0,0,1,518,383.26Z" fill="#f7a48b"/><path d="M568.88,456.65a35.88,35.88,0,0,0,4.3,1.3,24,24,0,0,0,4.36.62,16.31,16.31,0,0,0,4.35-.36l1.07-.27c.34-.11.69-.25,1-.38a19.44,19.44,0,0,0,2-.91A10.89,10.89,0,0,1,582.1,459a13,13,0,0,1-4.6.61A16.63,16.63,0,0,1,568.88,456.65Z" fill="#f7a48b"/><path d="M539.23,461c1.27.59,2.54,1.12,3.8,1.62a28.44,28.44,0,0,0,3.87,1.22,12.54,12.54,0,0,0,3.94.38,8.3,8.3,0,0,0,3.78-1.27,6.44,6.44,0,0,1-3.67,2,10.46,10.46,0,0,1-4.28-.18,18.15,18.15,0,0,1-7.44-3.81Z" fill="#f7a48b"/><path d="M558,439.64l1.4,3.77c.46,1.25.92,2.5,1.44,3.72a38.83,38.83,0,0,0,1.65,3.59,19.28,19.28,0,0,0,2.17,3.34,10.61,10.61,0,0,1-2.84-2.94,20.07,20.07,0,0,1-1.9-3.61A25.92,25.92,0,0,1,558,439.64Z" fill="#f7a48b"/><path d="M474,333.08l1.91,3.69c.3.62.62,1.22.91,1.86a18.25,18.25,0,0,1,.81,2,10.45,10.45,0,0,1-2.61-3.37,10.92,10.92,0,0,1-.77-2A6,6,0,0,1,474,333.08Z" fill="#f7a48b"/><path d="M481,346.39a41,41,0,0,1,5.75,7.91,36.66,36.66,0,0,1,3.77,9l-2.28-4.3c-.78-1.42-1.54-2.84-2.36-4.23C484.32,352,482.65,349.22,481,346.39Z" fill="#f7a48b"/><path d="M493.74,367.71a59.17,59.17,0,0,1,3,6.75c.89,2.31,1.64,4.67,2.3,7.05a55,55,0,0,1,2.13,14.64c-.24-1.22-.35-2.44-.62-3.64s-.45-2.41-.71-3.61c-.55-2.39-1.09-4.77-1.76-7.13s-1.35-4.71-2.07-7c-.36-1.18-.74-2.34-1.13-3.51S494.13,368.88,493.74,367.71Z" fill="#f7a48b"/><path d="M492.81,363.33a3.35,3.35,0,0,1,.57-1.47,4.81,4.81,0,0,1,1.09-1.16,4,4,0,0,1,3-.83c-.44.32-.86.55-1.26.82s-.77.53-1.14.81C494.32,362.05,493.63,362.67,492.81,363.33Z" fill="#f7a48b"/><path d="M497.47,363.33a5.8,5.8,0,0,1,1.8-2.56,7.67,7.67,0,0,1,2.84-1.49,9.18,9.18,0,0,1,3.17-.24,13.24,13.24,0,0,1,1.55.29,14.11,14.11,0,0,1,1.46.54c-.53,0-1,0-1.53-.06s-1,0-1.5,0a13.8,13.8,0,0,0-2.89.42A10,10,0,0,0,497.47,363.33Z" fill="#f7a48b"/><path d="M549,376.81a58.41,58.41,0,0,0,3.2,5.13,27.77,27.77,0,0,0,1.86,2.32c.65.76,1.39,1.43,2.14,2.16a9.1,9.1,0,0,1-2.68-1.59,12.6,12.6,0,0,1-2.13-2.31,15.22,15.22,0,0,1-1.54-2.72A11.6,11.6,0,0,1,549,376.81Z" fill="#f7a48b"/><path d="M549,472.69c2.4-.3,4.74-.56,7-1,1.16-.19,2.3-.46,3.44-.73s2.26-.65,3.41-1a15.09,15.09,0,0,1-6.68,2.74,21.82,21.82,0,0,1-3.61.32A16.23,16.23,0,0,1,549,472.69Z" fill="#f7a48b"/><path d="M190.09,562.38c28.23,9.77,39.09-14.66,39.09-14.66,19.35-33.85,46.52-54.89,56.17-61.67,1.9-1.34,3.78-2.69,5.54-4.2A59.16,59.16,0,0,1,318.78,469c22.25-1.84,40.69-56.47,40.69-56.47a103.81,103.81,0,0,0,7.62-22.75,103,103,0,0,1,5.3-18.14,204.82,204.82,0,0,1,12.2-25.47,55.41,55.41,0,0,1,7.1-9.46c4.05-4.47,3.09-6.89,3.09-6.89-.81-4.53-8.91-3.89-8.91-3.89.17-1.94-1.78-3.56-1.78-3.56-4-4.05-16.36-19.76-16.36-19.76l6.22-3.42a6.56,6.56,0,0,1,4.33-.66c23.94,4.26,31.41-10.67,31.41-10.67,4.21-7.61-4.38-7.61-4.38-7.61-4.86-.16-25.11-2.75-25.11-2.75-5.5-3.08-13.93,0-13.93,0a32.2,32.2,0,0,1-10.53,2.75l-.72.39a17.48,17.48,0,0,0-12.85,4.77c-15-9.05-27.85,2.61-27.85,2.61-18.56-16.18-29.27,2.15-29.27,2.15l-13.39,12.92c-4.21-10.69-1-16.85-1-16.85,5.18-5.5,5.83-16.85,5.83-16.85,1.71-8,6.16-11.31,8.26-12.44a18.53,18.53,0,0,0,4.88-3.63c5.49-5.92,5.94-14,5.81-17.8a4.1,4.1,0,0,0-4.39-4c-6.42.68-16.5,10.37-16.5,10.37-9.4,3.24-15,16.47-15,16.47-1.63,7.06-12.49,26.06-12.49,26.06-6.51,12.49-1.63,31.5-1.63,31.5,3.26,24.43-1.63,58.64-1.63,58.64-4,24.6-3.6,36.79-2.9,42.1a11.37,11.37,0,0,1-1.74,7.66c-16.62,25.63-53.76,45.42-70.51,53.39a51.85,51.85,0,0,1-14.39,4.25c-.68.1-1.3.22-1.87.34a7.74,7.74,0,0,0-6,6.45C139.31,539.81,190.09,562.38,190.09,562.38Zm150-235.85c10.67-7.51,11.54-13.3,11.54-13.3,5.49,9.25,9.72,11.77,11.4,12.44a12.45,12.45,0,0,1,2,1.08c4.85,3.18,6.95,3.71,6.95,3.71s-7.32,2.42-11.65,11.74a25.09,25.09,0,0,0-2.13,7.55,9.09,9.09,0,0,1-4.37,6.85s-8.92,8.47-11.25,14.95l-.2-11.57c-.44-15.29-3.4-22.12-3.4-22.12C337.44,328.23,340.09,326.53,340.09,326.53Z" fill="#f9b499"/><path d="M290.92,466.6A48,48,0,0,1,272,463.26a45.85,45.85,0,0,1-16.13-10.61,49.55,49.55,0,0,1-10.4-16.26,65.26,65.26,0,0,1-2.9-9.22c-.36-1.57-.61-3.16-.93-4.74s-.42-3.19-.62-4.78a78.64,78.64,0,0,0,5.16,18.45A50.46,50.46,0,0,0,256.59,452a46.44,46.44,0,0,0,15.7,10.59,51.36,51.36,0,0,0,9.12,2.86A47.5,47.5,0,0,0,290.92,466.6Z" fill="#f7a48b"/><path d="M266,465.21a17.44,17.44,0,0,1-4.76-1.49,21.4,21.4,0,0,1-4.28-2.63,20.62,20.62,0,0,1-3.58-3.53,19,19,0,0,1-2.58-4.27,44.63,44.63,0,0,0,3.17,3.76,29.93,29.93,0,0,0,3.6,3.25,32.4,32.4,0,0,0,4,2.73A37.5,37.5,0,0,0,266,465.21Z" fill="#f7a48b"/><path d="M241,425.62c.09,1.79.25,3.57.44,5.33a50.61,50.61,0,0,0,.82,5.22,31.29,31.29,0,0,0,1.5,5,19.48,19.48,0,0,0,2.64,4.56,13.06,13.06,0,0,1-3.35-4.23,22.1,22.1,0,0,1-1.77-5.15,29.57,29.57,0,0,1-.62-5.38A27.65,27.65,0,0,1,241,425.62Z" fill="#f7a48b"/><path d="M385.87,325.91a8.47,8.47,0,0,1-4,5,10.06,10.06,0,0,1-6.48.81,12.38,12.38,0,0,1-1.6-.37,11.55,11.55,0,0,1-1.58-.47l-1.54-.61-.76-.3-.73-.38a30.8,30.8,0,0,1-2.88-1.57l-2.76-1.76.17.07a12,12,0,0,1-4.07-2.29,25.21,25.21,0,0,1-3.27-3.18c-.52-.55-1-1.16-1.45-1.74s-.89-1.23-1.32-1.84l-1.24-1.9-1.15-1.94,0,0,0-.07c-.51-1.67-1.49-3.46-3.05-4.09a3.41,3.41,0,0,0-2.47.08l-.3.12c-.11,0-.18.08-.37.14a1.38,1.38,0,0,1-.45.08c-.13,0-.28,0-.4,0a13.8,13.8,0,0,1-1.47-.15,37.6,37.6,0,0,1-5.57-1.43,31,31,0,0,1-5.28-2.24h0a4.32,4.32,0,0,0-3.58-.8,4.38,4.38,0,0,0-1.68.91c-.25.2-.46.46-.69.68l-.6.79.55-.83a9.19,9.19,0,0,1,.66-.74,4.42,4.42,0,0,1,1.7-1,4,4,0,0,1,2-.1,5.27,5.27,0,0,1,1.88.79l0,0a35.47,35.47,0,0,0,5.28,2,36.25,36.25,0,0,0,5.49,1.24,10.78,10.78,0,0,0,1.37.1,1.56,1.56,0,0,0,.31,0h.15l.1,0a1.44,1.44,0,0,0,.3-.11l.35-.15a4.25,4.25,0,0,1,3.08-.1,5.23,5.23,0,0,1,2.36,2,10,10,0,0,1,1.29,2.7l0-.11,1.16,1.9,1.22,1.85c.86,1.2,1.74,2.39,2.71,3.5a23.35,23.35,0,0,0,3.12,3.09,11.32,11.32,0,0,0,3.65,2.15l.11,0,.06,0,2.69,1.76a14.05,14.05,0,0,0,1.39.82l1.4.78.71.39.73.31,1.47.63a11.75,11.75,0,0,0,1.52.5,9.18,9.18,0,0,0,1.54.4l1.57.24c.53,0,1.06,0,1.59,0a14.32,14.32,0,0,0,1.56-.23c.51-.12,1-.35,1.49-.52A8.5,8.5,0,0,0,385.87,325.91Z" fill="#f7a48b"/><path d="M355.56,303.08a37,37,0,0,0,1.54,4.56,45.1,45.1,0,0,0,7.38,12.22,42.57,42.57,0,0,0,6.91,6.57,55.68,55.68,0,0,0,8.14,5.1c-.75-.3-1.5-.62-2.24-.94a20.81,20.81,0,0,1-2.2-1,39.35,39.35,0,0,1-4.16-2.52,37.22,37.22,0,0,1-12.48-14.73A31.53,31.53,0,0,1,355.56,303.08Z" fill="#f7a48b"/><path d="M352.79,303.08a29.32,29.32,0,0,1-4.59.16,35.5,35.5,0,0,1-4.59-.46,30.58,30.58,0,0,1-4.5-1.14,24.14,24.14,0,0,1-4.24-1.93l0,0,0,0a10.79,10.79,0,0,0-2.13-1.21,11.64,11.64,0,0,0-2.38-.78,13.14,13.14,0,0,0-2.51-.29,14.77,14.77,0,0,0-2.56.18,11.34,11.34,0,0,1,5.18-.5,12.06,12.06,0,0,1,2.57.63,10.14,10.14,0,0,1,2.4,1.24l-.05,0a27.7,27.7,0,0,0,4.1,1.8,37.1,37.1,0,0,0,4.34,1.21c1.47.31,3,.59,4.47.77S351.27,303,352.79,303.08Z" fill="#f7a48b"/><path d="M408.77,281a28.14,28.14,0,0,1-7,2.65,43.33,43.33,0,0,1-7.44,1.08,48.51,48.51,0,0,1-7.53-.33c-1.26-.1-2.49-.39-3.73-.58s-2.44-.6-3.66-.9l.09,0a30.5,30.5,0,0,0-3.7,0,35.1,35.1,0,0,0-3.69.47,23.55,23.55,0,0,0-3.61.91,19.32,19.32,0,0,0-3.38,1.52h-.05c-2.25.7-4.49,1.41-6.76,2.08,2.19-.89,4.39-1.72,6.59-2.57l-.05,0a20.27,20.27,0,0,1,3.42-1.72,24.92,24.92,0,0,1,3.67-1.09,32.31,32.31,0,0,1,3.79-.54,30.63,30.63,0,0,1,3.84-.1h0l.06,0a66.59,66.59,0,0,0,7.26,1.45,46.65,46.65,0,0,0,7.38.42,42.43,42.43,0,0,0,7.36-.75A31.88,31.88,0,0,0,408.77,281Z" fill="#f7a48b"/><path d="M388.49,278.5a3.73,3.73,0,0,0,2,2.19,8.46,8.46,0,0,0,2.93.66,25.29,25.29,0,0,0,3.13-.07c1.06-.06,2.11-.21,3.21-.26a14.11,14.11,0,0,1-3.1,1,13,13,0,0,1-3.31.3,7,7,0,0,1-3.25-1A3.28,3.28,0,0,1,388.49,278.5Z" fill="#f7a48b"/><path d="M372.5,312.43a6.61,6.61,0,0,0-1.8,3.31,8.13,8.13,0,0,0,.14,3.7,15.12,15.12,0,0,0,.54,1.82c.26.59.49,1.19.76,1.77s.57,1.17.89,1.74.64,1.15.93,1.76c-.47-.47-.89-1-1.34-1.49a19.31,19.31,0,0,1-1.16-1.64c-.37-.56-.64-1.19-1-1.79l-.35-1a5.37,5.37,0,0,1-.28-1,7.4,7.4,0,0,1,.08-4.12A5.39,5.39,0,0,1,372.5,312.43Z" fill="#f7a48b"/><path d="M353.87,297.19a17.22,17.22,0,0,0-3.28,4.77,13.25,13.25,0,0,0-.93,2.7,28.49,28.49,0,0,0-.48,2.91,8.13,8.13,0,0,1-.29-3,8.94,8.94,0,0,1,.79-3A9.28,9.28,0,0,1,351.4,299,7.6,7.6,0,0,1,353.87,297.19Z" fill="#f7a48b"/><path d="M367.73,302.59a44.61,44.61,0,0,0-1.73-4.87,26.29,26.29,0,0,0-2.38-4.52,12.54,12.54,0,0,0-3.4-3.59,6.84,6.84,0,0,0-4.6-1.14h-.12a47.38,47.38,0,0,1-6.15-1.32,23.88,23.88,0,0,1-3-1,9.32,9.32,0,0,1-2.7-1.6,10.85,10.85,0,0,0,2.83,1.25c1,.29,2,.56,3,.77,2,.42,4.08.74,6.12,1h-.12a7.54,7.54,0,0,1,5.26,1.26,12.31,12.31,0,0,1,3.6,3.94,24.55,24.55,0,0,1,2.17,4.79A28.53,28.53,0,0,1,367.73,302.59Z" fill="#f7a48b"/><path d="M373.31,288c1,1.28,1.78,2.6,2.6,3.91l1.21,2c.4.66.82,1.32,1.22,2a10.4,10.4,0,0,1-3.28-3.48A15.2,15.2,0,0,1,374,290.3,10.13,10.13,0,0,1,373.31,288Z" fill="#f7a48b"/><path d="M372,291.05a9.24,9.24,0,0,0,1.57,2.64,13.38,13.38,0,0,0,1.05,1.09c.37.36.78.7,1.19,1.13a4.34,4.34,0,0,1-3.83-3.13A2.84,2.84,0,0,1,372,291.05Z" fill="#f7a48b"/><path d="M372,330.46a21.64,21.64,0,0,0-4.85,3.16,24.24,24.24,0,0,0-3.93,4.23,27.59,27.59,0,0,0-3.87,7.68c-.3.91-.49,1.86-.74,2.78v-.1a9.65,9.65,0,0,1-.19,2.58,10.19,10.19,0,0,1-.83,2.44,8.26,8.26,0,0,1-1.49,2.13,9.11,9.11,0,0,1-2,1.61l.07-.05a57,57,0,0,0-6.31,6.86,38.34,38.34,0,0,0-2.63,3.84c-.39.66-.74,1.35-1.08,2l-1.08,2.11-.92,1.81v-2c0-2.83,0-5.66-.1-8.49s-.2-5.66-.4-8.49-.49-5.63-.9-8.42a33.62,33.62,0,0,0-2.07-8.12l0,0v0a30.81,30.81,0,0,1-.47-5.91,14.25,14.25,0,0,1,.35-3,5.24,5.24,0,0,1,1.38-2.73h0l0,0c1.22-.82,2.39-1.73,3.54-2.67a40.6,40.6,0,0,0,3.27-3,20.7,20.7,0,0,0,4.88-7.37,20.25,20.25,0,0,1-4.65,7.59,39.51,39.51,0,0,1-3.2,3.14,41.29,41.29,0,0,1-3.53,2.8l0,0a4.8,4.8,0,0,0-1.17,2.46,14.1,14.1,0,0,0-.27,2.84,30.79,30.79,0,0,0,.56,5.75l0-.09A31.3,31.3,0,0,1,341.6,346c.44,2.82.76,5.66,1,8.5.42,5.67.62,11.36.53,17.05l-.9-.22,1.08-2.09c.35-.71.72-1.41,1.13-2.1a39.54,39.54,0,0,1,2.71-3.92,58.09,58.09,0,0,1,6.47-6.93l0,0,.05,0a8.43,8.43,0,0,0,1.87-1.43,7.26,7.26,0,0,0,1.39-1.91,8.92,8.92,0,0,0,.82-2.25,9.53,9.53,0,0,0,.23-2.37v-.1c.28-.94.49-1.9.81-2.83a26.66,26.66,0,0,1,1.1-2.72,23.63,23.63,0,0,1,3-5,24.89,24.89,0,0,1,4.11-4.16A20.4,20.4,0,0,1,372,330.46Z" fill="#f7a48b"/><path d="M349.12,313.23a42.81,42.81,0,0,1-4,5.61,41.53,41.53,0,0,1-4.77,5,47.48,47.48,0,0,1,8.76-10.59Z" fill="#f7a48b"/><path d="M333.24,307.57a10.39,10.39,0,0,1-.77,2.26,15,15,0,0,1-1.17,2.06,11.74,11.74,0,0,1-1.55,1.82,6.57,6.57,0,0,1-2,1.34c1-1.25,1.86-2.46,2.73-3.73S332.2,308.8,333.24,307.57Z" fill="#f7a48b"/><path d="M314.32,288a31.06,31.06,0,0,1,6.42,6.33,23.64,23.64,0,0,1,2.36,3.88,18.17,18.17,0,0,1,1.39,4.34v0c1.12,4.26,2.35,8.5,3.78,12.66.71,2.09,1.48,4.15,2.34,6.17a36.67,36.67,0,0,0,3,5.82l0-.05a34.55,34.55,0,0,1,3.28,4.34,18,18,0,0,1,2.33,5,6.92,6.92,0,0,1,.22,2.84,4.45,4.45,0,0,1-1.37,2.59,5.78,5.78,0,0,1-1.21.83,5.07,5.07,0,0,1-1.37.47,14.36,14.36,0,0,1-2.76.34,17,17,0,0,1-5.44-.83,23.38,23.38,0,0,1-2.57-1c-.81-.43-1.66-.79-2.42-1.29a38.1,38.1,0,0,1-8.27-7l0,0,0,0a92.48,92.48,0,0,1-4.66-8.8,52.5,52.5,0,0,1-3.39-9.38l.27.3a40.7,40.7,0,0,1-4.48-2,21.57,21.57,0,0,1-2.12-1.23,10.8,10.8,0,0,1-2-1.58l.63-.21a37.93,37.93,0,0,1-2.3,8.6,22.67,22.67,0,0,1-4.72,7.51,12.62,12.62,0,0,1-3.64,2.58,18.88,18.88,0,0,1-4.29,1.14,12.16,12.16,0,0,1-4.42-.14,8.36,8.36,0,0,1-3.88-2,8.29,8.29,0,0,0,3.9,1.92,11.84,11.84,0,0,0,4.36,0,18.56,18.56,0,0,0,4.2-1.22,10.13,10.13,0,0,0,1.83-1.13,18.61,18.61,0,0,0,1.62-1.45,23,23,0,0,0,4.48-7.42,37.09,37.09,0,0,0,2.13-8.46l.1-.76.53.55a10.38,10.38,0,0,0,1.83,1.44c.67.42,1.37.8,2.08,1.16a44.72,44.72,0,0,0,4.39,1.9l.22.08.05.22a52.15,52.15,0,0,0,3.39,9.2,92.48,92.48,0,0,0,4.64,8.68l-.05-.06a37.47,37.47,0,0,0,8.08,6.8c.74.48,1.55.82,2.32,1.25a24.1,24.1,0,0,0,2.45.92,15.78,15.78,0,0,0,5.13.82,13.87,13.87,0,0,0,2.57-.3,4.79,4.79,0,0,0,1.16-.39,4.53,4.53,0,0,0,1-.68,3.54,3.54,0,0,0,1.1-2.05,6.19,6.19,0,0,0-.19-2.48,17.34,17.34,0,0,0-2.19-4.73,35.41,35.41,0,0,0-3.18-4.23l0,0,0,0a36.28,36.28,0,0,1-3-6c-.84-2.06-1.59-4.15-2.27-6.25s-1.33-4.22-1.93-6.35-1.17-4.26-1.67-6.42h0a17.42,17.42,0,0,0-1.25-4.27,23,23,0,0,0-2.22-3.88A31.12,31.12,0,0,0,314.32,288Z" fill="#f7a48b"/><path d="M335.26,341.82a28.64,28.64,0,0,1-8-3.32,28.94,28.94,0,0,1-11.46-12.78,28.78,28.78,0,0,1-1.53-4.09,17.75,17.75,0,0,1-.53-2.12l-.46-2.14h0v-.06a11.09,11.09,0,0,0-.68-3.05,14.54,14.54,0,0,0-1.43-2.84,15.43,15.43,0,0,0-2-2.45,19.4,19.4,0,0,0-2.47-2l0,0,0,0a23.27,23.27,0,0,0-9.3-5.67,8.37,8.37,0,0,0-1.32-.28l-.67-.09h-.67a6.47,6.47,0,0,0-1.32.09,3.41,3.41,0,0,0-1.24.34,4.38,4.38,0,0,0-1.88,1.69c-.43.76-.87,1.64-1.32,2.45A97.35,97.35,0,0,1,283,315a42.85,42.85,0,0,1-3.54,4.4,12.16,12.16,0,0,1-4.52,3.3,12.58,12.58,0,0,0,4.33-3.47,41.83,41.83,0,0,0,3.33-4.5,102.72,102.72,0,0,0,5.62-9.7c.43-.84.81-1.65,1.28-2.53a5.1,5.1,0,0,1,2.22-2,9.32,9.32,0,0,1,5.81-.14,18.9,18.9,0,0,1,5.24,2.35,28.77,28.77,0,0,1,4.53,3.49l-.07-.06a19.19,19.19,0,0,1,2.61,2.16,16.5,16.5,0,0,1,2.14,2.63,15.11,15.11,0,0,1,1.51,3,11.75,11.75,0,0,1,.7,3.37v-.07l.43,2.09a16.23,16.23,0,0,0,.49,2.06,29.39,29.39,0,0,0,1.46,4,26.69,26.69,0,0,0,4.48,7.19,29.39,29.39,0,0,0,6.42,5.61A29.74,29.74,0,0,0,335.26,341.82Z" fill="#f7a48b"/><path d="M271.66,303.07a47.63,47.63,0,0,1,3.41,10.05,34.82,34.82,0,0,1,.83,10.64,17.16,17.16,0,0,1-4,9.9,14.86,14.86,0,0,1-4.33,3.19l-1.22.54-1.28.41a22.47,22.47,0,0,1-2.58.6,15.44,15.44,0,0,0,12.41-14.74,39.87,39.87,0,0,0-.58-10.39c-.3-1.73-.69-3.44-1.14-5.14S272.23,304.74,271.66,303.07Z" fill="#f7a48b"/><path d="M294.58,233a65.41,65.41,0,0,0-7.82,4.64,74.47,74.47,0,0,0-7.19,5.56c-1.16,1-2.24,2.05-3.34,3.09s-2.14,2.15-3.1,3.32a61,61,0,0,0-5.47,7.23l0,0-14,29.55,0-.07a49.9,49.9,0,0,0-.38,12.69c.18,2.1.59,4.21.81,6.34s.47,4.26.65,6.39a241.24,241.24,0,0,1,.74,25.65c0,2.15-.24,4.29-.39,6.42l-.5,6.38-1,12.78-1.11,12.77-.61,6.38-.33,3.19c-.1,1-.15,2.11-.2,3.17A142.8,142.8,0,0,0,252.55,414c1.21,8.4,3.24,16.79,7.07,24.37A39.06,39.06,0,0,0,267,448.62a28.6,28.6,0,0,0,10.64,6.66,31.84,31.84,0,0,0,6.16,1.43,39.47,39.47,0,0,0,6.34.24,55,55,0,0,0,12.52-2.21l.2-.06.13.18c3.09,4.34,8,7.71,13.34,8.17a18,18,0,0,0,7.9-1.24,29.86,29.86,0,0,0,7-4A62.83,62.83,0,0,0,342.47,446a137.73,137.73,0,0,0,8.91-13.73,137.3,137.3,0,0,1-8.76,13.84,62.78,62.78,0,0,1-11.15,12,30.65,30.65,0,0,1-7.09,4.17,18.08,18.08,0,0,1-8.13,1.32,16.17,16.17,0,0,1-4.06-.87,17.37,17.37,0,0,1-3.73-1.81,21.49,21.49,0,0,1-6-5.69l.33.13a56.1,56.1,0,0,1-12.66,2.28,39.72,39.72,0,0,1-6.45-.22,31.62,31.62,0,0,1-6.3-1.44,29,29,0,0,1-10.93-6.78,39.84,39.84,0,0,1-7.54-10.45c-3.93-7.68-6-16.14-7.26-24.6a143,143,0,0,1-1.26-25.66c1.56-17.05,3.23-34,4.36-51.07a239.64,239.64,0,0,0-.64-25.56c-.17-2.13-.37-4.25-.62-6.37s-.61-4.21-.79-6.36a50.91,50.91,0,0,1,.44-12.87v-.07l14.13-29.47h0a61,61,0,0,1,5.59-7.22c1-1.16,2.09-2.2,3.15-3.3s2.21-2.09,3.38-3a75.77,75.77,0,0,1,7.27-5.5A67.1,67.1,0,0,1,294.58,233Z" fill="#f7a48b"/><path d="M301.07,334.75a12.86,12.86,0,0,0-2.17-2.31,13.87,13.87,0,0,0-2.62-1.71,13.31,13.31,0,0,0-6-1.3l-1.55.07-1.54.28c-.25.05-.51.08-.76.15l-.75.23-1.5.45-2.89,1.24c-.92.5-1.85,1-2.79,1.49l-.13.06h-.1a18,18,0,0,0-4.08.13,11.38,11.38,0,0,0-3.93,1.22,10.37,10.37,0,0,1,3.84-1.69,18,18,0,0,1,4.22-.42l-.23.05c.92-.56,1.86-1.11,2.79-1.65s2-.92,3-1.34l1.56-.49.78-.25c.27-.07.54-.09.81-.15l1.62-.27,1.65-.06a11.45,11.45,0,0,1,1.65.12c.27,0,.55.06.82.11l.8.2.8.22.76.32.76.32.71.4A11.65,11.65,0,0,1,301.07,334.75Z" fill="#f7a48b"/><path d="M272,328.93a7.19,7.19,0,0,1-.9,1.92,11.13,11.13,0,0,1-1.31,1.66,8,8,0,0,1-3.57,2.24c.48-.54,1-1,1.45-1.49s.94-.95,1.4-1.44C270,330.86,270.88,329.87,272,328.93Z" fill="#f7a48b"/><path d="M267.33,291.05a4,4,0,0,1-1.92,2,7.88,7.88,0,0,1-2.69.92,13,13,0,0,1-1.4.14c-.46,0-.93,0-1.39,0a11.44,11.44,0,0,1-2.72-.56c.93-.12,1.83-.15,2.72-.22s1.77-.15,2.63-.3a12.76,12.76,0,0,0,2.52-.64A6.35,6.35,0,0,0,267.33,291.05Z" fill="#f7a48b"/><path d="M257.21,291.05c.84.07,1.64.14,2.44.18a15.19,15.19,0,0,0,2.34,0,8.27,8.27,0,0,0,2.21-.51,7.77,7.77,0,0,0,2-1.31,4.13,4.13,0,0,1-1.6,2,5.69,5.69,0,0,1-2.48.82,7.5,7.5,0,0,1-2.55-.19A7.29,7.29,0,0,1,257.21,291.05Z" fill="#f7a48b"/><path d="M276.74,261.06a3.41,3.41,0,0,1-1.84,1.27,4.59,4.59,0,0,1-2.3.09,5.59,5.59,0,0,1-2.06-.93,8.3,8.3,0,0,1-.85-.72,8.14,8.14,0,0,1-.68-.87,8.75,8.75,0,0,1,1,.48l.95.44a9.62,9.62,0,0,0,1.88.62A6.35,6.35,0,0,0,276.74,261.06Z" fill="#f7a48b"/><path d="M275,259.9a2.61,2.61,0,0,1-1.39.55,3.11,3.11,0,0,1-1.53-.2,2.85,2.85,0,0,1-1.25-.94,2.58,2.58,0,0,1-.54-1.4c.41.31.73.62,1.09.84a4.25,4.25,0,0,0,1.07.57A10.9,10.9,0,0,0,275,259.9Z" fill="#f7a48b"/><path d="M295.38,292a17,17,0,0,0-.49,3c-.06.5-.06,1-.12,1.52a13.52,13.52,0,0,1-.19,1.61,4.78,4.78,0,0,1-.59-1.56,6.13,6.13,0,0,1-.09-1.66,5.09,5.09,0,0,1,.42-1.63A2.93,2.93,0,0,1,295.38,292Z" fill="#f7a48b"/><path d="M309.65,304.79a13.54,13.54,0,0,0-2.1,3.62c-.28.63-.49,1.3-.73,2s-.42,1.36-.7,2.06a7.26,7.26,0,0,1-.06-2.23,8.69,8.69,0,0,1,.57-2.17,7,7,0,0,1,1.18-1.94A4.28,4.28,0,0,1,309.65,304.79Z" fill="#f7a48b"/><path d="M327.75,321.08a15.77,15.77,0,0,0-2.13,3.09,10.14,10.14,0,0,0-1.08,3.44,9,9,0,0,0-.05,1.8l.08.9.19.89a4,4,0,0,0,.24.9l.28.89c.21.59.51,1.15.72,1.76-.4-.49-.79-1-1.16-1.55a9.32,9.32,0,0,1-.83-1.78,8.35,8.35,0,0,1-.46-3.94,8.6,8.6,0,0,1,1.4-3.71A9,9,0,0,1,327.75,321.08Z" fill="#f7a48b"/><path d="M319.59,298.12a5,5,0,0,0-1,.94,11.66,11.66,0,0,0-.77,1c-.25.35-.48.74-.74,1.12a9.35,9.35,0,0,1-.86,1.16,4.14,4.14,0,0,1,.15-1.49,4.74,4.74,0,0,1,.63-1.35,3.74,3.74,0,0,1,1.09-1.08A2.06,2.06,0,0,1,319.59,298.12Z" fill="#f7a48b"/><path d="M326.48,319.48c-.77.74-1.41,1.39-2.05,2.11-.31.35-.62.71-.93,1.09s-.63.76-1,1.14a4.61,4.61,0,0,1,1.21-2.9,5,5,0,0,1,1.25-1A3.09,3.09,0,0,1,326.48,319.48Z" fill="#f7a48b"/><path d="M309.65,324.3a11.87,11.87,0,0,1-8.44,3.83,10.11,10.11,0,0,1-4.66-1,11.27,11.27,0,0,1-2-1.22,21.77,21.77,0,0,1-1.73-1.58c.7.37,1.31.83,2,1.17a15.69,15.69,0,0,0,2.07.91,11.4,11.4,0,0,0,4.35.75,13.13,13.13,0,0,0,4.36-.8A20.24,20.24,0,0,0,309.65,324.3Z" fill="#f7a48b"/><path d="M311.29,327.65c-1.42,0-2.82,0-4.21,0s-2.78.06-4.16.2a24.31,24.31,0,0,0-8.05,1.85,11.14,11.14,0,0,1,3.76-2,19.6,19.6,0,0,1,4.21-.82A24.26,24.26,0,0,1,311.29,327.65Z" fill="#f7a48b"/><path d="M297.86,310.4a3.14,3.14,0,0,1-2.05-.95,5.11,5.11,0,0,1-1.25-1.93,7.13,7.13,0,0,1-.45-2.21,6.83,6.83,0,0,1,.24-2.21,8.76,8.76,0,0,1,.28,1.06c.09.35.18.69.25,1a19.48,19.48,0,0,0,.61,2,7.87,7.87,0,0,0,.91,1.78A5.48,5.48,0,0,0,297.86,310.4Z" fill="#f7a48b"/><path d="M292,306.75c.83.63,1.51,1.19,2.27,1.67a11.09,11.09,0,0,0,1.16.69c.4.22.83.4,1.3.66a3.14,3.14,0,0,1-1.55.08,4.12,4.12,0,0,1-1.46-.59,4.42,4.42,0,0,1-1.12-1.08A3.2,3.2,0,0,1,292,306.75Z" fill="#f7a48b"/><path d="M295.38,315.52a18.6,18.6,0,0,1-3.38,7.11,16.66,16.66,0,0,1-2.8,2.83,10.83,10.83,0,0,1-3.53,1.8,23,23,0,0,0,3-2.39,28.37,28.37,0,0,0,2.52-2.85c.78-1,1.49-2.07,2.18-3.16S294.74,316.67,295.38,315.52Z" fill="#f7a48b"/><path d="M282.33,327.92a1.25,1.25,0,0,1-.9.77,3.13,3.13,0,0,1-1.13.11,3.23,3.23,0,0,1-2-.88,3.91,3.91,0,0,1,1.09-.15c.34,0,.67,0,1,0l.95.11A2.74,2.74,0,0,0,282.33,327.92Z" fill="#f7a48b"/><path d="M342.62,371.55a28.46,28.46,0,0,1-6.71,10.1,35.08,35.08,0,0,1-10.06,6.93,23.1,23.1,0,0,0-8.8,7.77,18.11,18.11,0,0,0-2.51,5.38,21.58,21.58,0,0,0-.88,5.95,19,19,0,0,1,2.74-11.75,22.07,22.07,0,0,1,4-4.72,22.51,22.51,0,0,1,5.08-3.53,36.56,36.56,0,0,0,9.95-6.58,32.07,32.07,0,0,0,4-4.44A27.56,27.56,0,0,0,342.62,371.55Z" fill="#f7a48b"/><path d="M333.77,383.06a41.13,41.13,0,0,0-3.94,1.44,40.42,40.42,0,0,0-3.78,1.75,39.8,39.8,0,0,0-6.91,4.54,27.08,27.08,0,0,0-5.48,6.12l-1.08,1.76c-.31.62-.57,1.26-.86,1.89l-.44.95-.31,1c-.2.67-.42,1.33-.64,2a21.4,21.4,0,0,1,2.67-8,24.13,24.13,0,0,1,5.5-6.49,31.81,31.81,0,0,1,7.22-4.46A32.26,32.26,0,0,1,333.77,383.06Z" fill="#f7a48b"/><path d="M301.07,337.23a21.3,21.3,0,0,1,2.17,8.42,16.61,16.61,0,0,1-.36,4.39,16.81,16.81,0,0,1-1.49,4.18h0l0,0a46.36,46.36,0,0,0-6,12.76,45.16,45.16,0,0,0-1.41,6.92,27.5,27.5,0,0,0-.06,7,30.3,30.3,0,0,0,5,13.09c1.29,2,2.55,4.05,3.66,6.17a24.1,24.1,0,0,1,2.63,6.65,25.39,25.39,0,0,0-3-6.46q-1.83-3.06-3.86-6a31.07,31.07,0,0,1-3.5-6.31,28.81,28.81,0,0,1-1.83-7,34.36,34.36,0,0,1,1.48-14.32,43.72,43.72,0,0,1,6.34-12.93l0,0a16,16,0,0,0,1.54-4,17.27,17.27,0,0,0,.49-4.25,21.47,21.47,0,0,0-.44-4.29A22.25,22.25,0,0,0,301.07,337.23Z" fill="#f7a48b"/><path d="M287,363.38l.65,3.11c.21,1,.43,2.07.66,3.09.47,2.06.95,4.1,1.52,6.12a53.2,53.2,0,0,0,1.95,6,22.21,22.21,0,0,0,1.32,2.84l.8,1.35c.33.41.65.83,1,1.26a14.36,14.36,0,0,1-3.79-5.13,33.62,33.62,0,0,1-2.21-6,51.4,51.4,0,0,1-1.31-6.25A49.93,49.93,0,0,1,287,363.38Z" fill="#f7a48b"/><path d="M270.26,355.44a38.46,38.46,0,0,0,.8,6.16,39.26,39.26,0,0,0,1.66,6,27.64,27.64,0,0,0,6.38,10.35,22,22,0,0,0,4.8,3.73c.86.54,1.83,1,2.71,1.59s1.71,1.24,2.53,1.89a68.25,68.25,0,0,1,9.07,8.59c-1.52-1.43-3-2.82-4.66-4.14s-3.21-2.62-4.88-3.84c-.84-.6-1.67-1.23-2.52-1.77s-1.79-1-2.69-1.53a22.76,22.76,0,0,1-5.07-3.81A27.36,27.36,0,0,1,272,367.81,35.71,35.71,0,0,1,270.26,355.44Z" fill="#f7a48b"/><path d="M290.52,344.26c-.58,1.27-1.07,2.55-1.55,3.83s-.92,2.58-1.3,3.89-.75,2.62-1.07,4l-.93,4a21,21,0,0,1,.17-4.19,25.17,25.17,0,0,1,.88-4.1A21.22,21.22,0,0,1,290.52,344.26Z" fill="#f7a48b"/><path d="M302.23,334.75a10,10,0,0,1,1.72,2,15.32,15.32,0,0,1,1.25,2.33,10.93,10.93,0,0,1,.92,5.17l-.9-2.43c-.31-.79-.6-1.58-1-2.36C303.63,337.91,302.91,336.38,302.23,334.75Z" fill="#f7a48b"/><path d="M300,343a8.53,8.53,0,0,1,.57,2.38,10.57,10.57,0,0,1,0,2.45,7.79,7.79,0,0,1-.69,2.39,4.4,4.4,0,0,1-1.62,1.87,9,9,0,0,0,.89-2.15,14,14,0,0,0,.42-2.24C299.74,346.21,299.78,344.66,300,343Z" fill="#f7a48b"/><path d="M296.11,355.44c-.91,2.36-1.95,4.62-2.89,6.9q-.74,1.71-1.35,3.45a17.14,17.14,0,0,0-.94,3.58,9.21,9.21,0,0,1,.19-3.8A20.59,20.59,0,0,1,292.3,362,27.5,27.5,0,0,1,296.11,355.44Z" fill="#f7a48b"/><path d="M319.89,364.35a7.52,7.52,0,0,0-.84-2,13.39,13.39,0,0,0-1.16-1.73,18.71,18.71,0,0,0-2.94-3,35.24,35.24,0,0,0-3.4-2.48l-1.81-1.12c-.62-.36-1.25-.7-1.85-1.1.69.19,1.37.44,2.06.66s1.33.58,2,.88a19.82,19.82,0,0,1,3.65,2.4,13.49,13.49,0,0,1,2.94,3.27A7.94,7.94,0,0,1,319.89,364.35Z" fill="#f7a48b"/><path d="M316.81,362.41a4.64,4.64,0,0,1,1.05,1.54,7.75,7.75,0,0,1,.52,1.78,6.49,6.49,0,0,1-.44,3.64c-.14-.61-.21-1.2-.3-1.78l-.25-1.71C317.22,364.74,317,363.63,316.81,362.41Z" fill="#f7a48b"/><path d="M325.86,364.35a32.5,32.5,0,0,1-4.06,10.44,22.45,22.45,0,0,1-8,7.87,22.2,22.2,0,0,0-4,3.74,19.36,19.36,0,0,0-2.93,4.61,17.88,17.88,0,0,0-1.28,10.68v.06a38.67,38.67,0,0,0,1,6.07c.49,2,1.15,3.93,1.85,5.95a56.33,56.33,0,0,1,2,12.42,43.49,43.49,0,0,1-1.15,12.51,28.85,28.85,0,0,1-5.52,11.19,29.54,29.54,0,0,0,5-11.31,43.35,43.35,0,0,0,.86-12.34A58.59,58.59,0,0,0,307.6,414a44.57,44.57,0,0,1-3-12.24v.07a18.81,18.81,0,0,1,1.43-11.22,21.29,21.29,0,0,1,7.34-8.59,22.08,22.08,0,0,0,8-7.51A33.86,33.86,0,0,0,325.86,364.35Z" fill="#f7a48b"/><path d="M313.64,413.92a10.72,10.72,0,0,1,0,7.46,17.71,17.71,0,0,1-.33-3.73A18.4,18.4,0,0,1,313.64,413.92Z" fill="#f7a48b"/><path d="M357.47,387.84a23,23,0,0,0-3.17-2.7,17.57,17.57,0,0,0-3.59-1.94,15.12,15.12,0,0,0-3.93-1.05,23.85,23.85,0,0,0-4.16-.14,11.84,11.84,0,0,1,4.23-.63,12.11,12.11,0,0,1,2.16.24,15.18,15.18,0,0,1,2.08.65A12.75,12.75,0,0,1,357.47,387.84Z" fill="#f7a48b"/><path d="M357.47,383.06a28.47,28.47,0,0,1-3.07-1.59,31.65,31.65,0,0,0-3-1.57,3.91,3.91,0,0,1,1.83,0,6.65,6.65,0,0,1,1.68.68,7.93,7.93,0,0,1,1.45,1.06A5.7,5.7,0,0,1,357.47,383.06Z" fill="#f7a48b"/><path d="M347.75,379.9c-1.81.19-3.56.2-5.33.22-.88,0-1.76,0-2.64,0s-1.78-.06-2.68-.18a16.63,16.63,0,0,1,5.33-.78,20.11,20.11,0,0,1,2.68.18A12.77,12.77,0,0,1,347.75,379.9Z" fill="#f7a48b"/><path d="M296.88,453.29a16.51,16.51,0,0,1-8.61,2.92,12.82,12.82,0,0,1-4.6-.61,10.79,10.79,0,0,1-4-2.31,19.68,19.68,0,0,0,2.06.92c.35.12.69.26,1,.37l1.07.27a16.7,16.7,0,0,0,4.35.37,26,26,0,0,0,4.36-.62A33.56,33.56,0,0,0,296.88,453.29Z" fill="#f7a48b"/><path d="M326.53,457.66a17.06,17.06,0,0,1-3.48,2.33,16.54,16.54,0,0,1-4,1.48,10.23,10.23,0,0,1-4.27.18,6.35,6.35,0,0,1-3.68-2,8.3,8.3,0,0,0,3.78,1.27,12.6,12.6,0,0,0,3.95-.38,26.14,26.14,0,0,0,3.86-1.22C324,458.78,325.27,458.26,326.53,457.66Z" fill="#f7a48b"/><path d="M307.74,436.28a26.15,26.15,0,0,1-1.92,7.87,20.2,20.2,0,0,1-1.91,3.62,10.57,10.57,0,0,1-2.84,2.93,19.28,19.28,0,0,0,2.17-3.34,38.83,38.83,0,0,0,1.65-3.59c.52-1.22,1-2.47,1.45-3.71Z" fill="#f7a48b"/><path d="M391.77,329.73a6.16,6.16,0,0,1-.24,2.14,11.52,11.52,0,0,1-.78,2,10.49,10.49,0,0,1-2.6,3.36,14.91,14.91,0,0,1,.81-2c.28-.63.6-1.24.9-1.85Z" fill="#f7a48b"/><path d="M384.75,343c-1.63,2.84-3.3,5.6-4.89,8.41-.81,1.4-1.58,2.82-2.35,4.23L375.22,360a36.5,36.5,0,0,1,3.77-9A40.71,40.71,0,0,1,384.75,343Z" fill="#f7a48b"/><path d="M372,364.35c-.39,1.17-.8,2.33-1.16,3.51s-.78,2.33-1.14,3.5c-.72,2.35-1.43,4.69-2.07,7.05s-1.21,4.75-1.76,7.13c-.26,1.2-.51,2.4-.7,3.61s-.39,2.43-.62,3.64a54.66,54.66,0,0,1,2.12-14.64c.67-2.38,1.41-4.74,2.31-7A59.26,59.26,0,0,1,372,364.35Z" fill="#f7a48b"/><path d="M373,360c-.83-.67-1.51-1.28-2.27-1.83a13.7,13.7,0,0,0-1.14-.81c-.39-.27-.81-.5-1.26-.83a4,4,0,0,1,3,.84,4.26,4.26,0,0,1,1.09,1.15A3.41,3.41,0,0,1,373,360Z" fill="#f7a48b"/><path d="M368.29,360a9.92,9.92,0,0,0-4.9-3.1,13.79,13.79,0,0,0-2.88-.41c-.5,0-1,0-1.5,0s-1,.06-1.54.05q.72-.3,1.47-.54a13.06,13.06,0,0,1,1.54-.28,8.94,8.94,0,0,1,3.17.23,7.52,7.52,0,0,1,2.84,1.49A5.77,5.77,0,0,1,368.29,360Z" fill="#f7a48b"/><path d="M316.81,373.45a10.86,10.86,0,0,1-.85,3,14.31,14.31,0,0,1-1.54,2.72,12.54,12.54,0,0,1-2.12,2.31,8.94,8.94,0,0,1-2.69,1.59c.75-.73,1.49-1.39,2.14-2.15a24.34,24.34,0,0,0,1.86-2.33A53.52,53.52,0,0,0,316.81,373.45Z" fill="#f7a48b"/><path d="M316.81,469.33a16.8,16.8,0,0,1-3.61.34,23.06,23.06,0,0,1-3.61-.32,15.16,15.16,0,0,1-6.68-2.75c1.15.38,2.27.74,3.41,1s2.28.54,3.44.73C312.08,468.77,314.41,469,316.81,469.33Z" fill="#f7a48b"/></svg>