<?xml version="1.0" encoding="UTF-8"?>
<svg xmlns="http://www.w3.org/2000/svg" id="a" width="865.76" height="682.89" viewBox="0 0 865.76 682.89">
  <line x1="698" y1="645.7" x2="97.2" y2="645.7" fill="none" stroke="#002346" stroke-linecap="round" stroke-linejoin="round"></line>
  <path d="M499.22,300.27s6.06-5.18,6.56-20.22-14.63-25.4-14.63-25.4c0,0,2-10.37,.51-18.67s-17.62-15.03-17.62-15.03c0,0,1.51-9.33-1-17.63s-14.13-10.88-14.13-10.88c-23.34-33.4-50.42-24.55-55.25-22.62-4.82-1.93-31.9-10.78-55.24,22.62,0,0-11.61,2.59-14.13,10.88s-1,17.63-1,17.63c0,0-16.14,6.74-17.66,15s.51,18.67,.51,18.67c0,0-15.14,10.37-14.63,25.4,.51,15.03,6.53,20.25,6.53,20.25,0,0-9.08,5.7-9.08,13s8.54,18.62,16.08,20.68c7.14,2,80.35,.22,88.54,0,8.2,.2,81.41,1.94,88.55,0,7.57-2.08,16.15-13.48,16.15-20.74s-9.06-12.94-9.06-12.94Z" fill="#002346" stroke="#002346" stroke-miterlimit="10"></path>
  <path d="M360.61,290.46s-48.52,26.32-56.3,36.48,22.19,142,22.93,146.08,2.22,16.93,49.64,20.69,70.37-6.4,73.71-10.16c1.98-2.24,4.09-4.38,6.3-6.39,0,0,50-143.27,45.19-151.92s-37-28.2-47-33.09-38.49-1.69-38.49-1.69h-55.98Z" fill="#016004" stroke="#002346" stroke-miterlimit="10"></path>
  <path d="M518.24,629.86l-14.31-35.52c-1.63-4.04-3.02-8.17-4.22-12.36-1.33-4.67-3.57-11.19-6.23-13.76h-.01c-.93-.91-1.47-2.12-1.54-3.41-.72-13.25-2.25-26.45-4.61-39.53l-179.3,16.39s-1.44,7.7-1.98,20.23c-.39,8.84-1.93,17.61-4.82,25.97-1.16,3.35-1.84,6.13-1.84,6.13,0,0-14.1,30.89-17.21,37.72s-1.24,13,.62,13.66,10.56,.62,10.56,.62h30.83c.22,.26,.44,.49,.63,.66h149.51c.07-.14,.2-.36,.37-.66h32.38s8.7,.05,10.56-.7c1.86-.75,3.72-7.73,.62-15.46Z" fill="#fb6209" stroke="#002346" stroke-miterlimit="10"></path>
  <path d="M344.28,299.44l14.07,141.87-23.7-8.15s-22.23,78.9-26.3,105.2,4.44,57.41,16.67,74.82,49.63,30,74.82,28.52,48.16-8.52,61.86-27.41,24.82-45.19,25.93-83.34-20.37-94.83-20.37-94.83l-25.15,5.56,29.07-140.35-10-5.79-9.48,62.41s-13.71,4.08-45.93,4.08-47.79-8.89-47.79-8.89l-5.94-57.78-7.76,4.08Z" fill="#fff" stroke="#002346" stroke-miterlimit="10"></path>
  <path d="M416.88,332.4l-5.18,107.06,24.81-2.6,4.45-128.16s-8.92,21.48-24.08,23.7Z" fill="#fb6209" stroke="#002346" stroke-miterlimit="10"></path>
  <path d="M366.7,279.61s-.57,2.79-.2,5.38-3,4.08-1.11,10.74,18.31,40.88,24.45,48.16c7.7,9.12,18.15,7.41,24.82,2.59s25.56-29.26,27.78-41.86c.63-3.56,1.16-6.67,1.59-9.38,1.22-7.73-.9-15.6-5.85-21.66h0s-8.87,15.52-28.48,19.02c-28,5-43-13-43-13Z" fill="#fb6209" stroke="#002346" stroke-miterlimit="10"></path>
  <path d="M380.95,289.44s20.74,37.41,26.3,34.44,15.93-37.78,15.93-37.78l-42.23,3.34Z" fill="#f1b2c0" stroke="#002346" stroke-miterlimit="10"></path>
  <path d="M341.61,301.52s-47.3,28.28-49.94,40.51c-1.77,8.18,3.14,43.88,6.58,66.6,2.02,13.37,3,26.86,2.91,40.38l-.23,35.98s13.33-7,24.45-7,18.89,.37,18.89,.37c0,0-7-47.41-7-48.9s1.34-80.94,1.34-80.94" fill="#016004" stroke="#002346" stroke-linecap="round" stroke-linejoin="round"></path>
  <path d="M330.07,465.37c-6.33-.21-12.57,1.47-18.12,4.51-4.53,2.49-10.2,5.82-12.48,8.06-4.07,4-5.19,5.56-4.08,7s3.34,25.19,6.3,27.78,12.59,7,28.52,1.85,20-10.74,20.75-14.45-1.11-6.66-3-17.78c-1.51-8.9-4.85-16.55-17.88-16.98Z" fill="#fb6209" stroke="#002346" stroke-miterlimit="10"></path>
  <path d="M473.59,304.06s38.29,19.08,40.89,31.31c1.67,7.83-4.62,43.63-9.36,68.34-3.2,16.68-4.76,33.63-4.65,50.61l.2,30.68s-13.33-7-24.45-7-18.89,.37-18.89,.37c0,0,7-47.41,7-48.9s-.37-80.38-.37-80.38" fill="#016004" stroke="#002346" stroke-linecap="round" stroke-linejoin="round"></path>
  <path d="M483.26,466.5s9,1,18.89,11.48c4,4.19,5.19,5.56,4.08,7s-3.34,25.19-6.3,27.78-12.59,7-28.52,1.85-20-10.74-20.74-14.45,1.11-6.66,3-17.78,6.63-20.33,29.59-15.88Z" fill="#fb6209" stroke="#002346" stroke-miterlimit="10"></path>
  <circle cx="600" cy="109.79" r="47.05" fill="#016004" stroke="#002346" stroke-linecap="round" stroke-linejoin="round"></circle>
  <line x1="600" y1="173.47" x2="600" y2="196.01" fill="none" stroke="#002346" stroke-linecap="round" stroke-linejoin="round"></line>
  <line x1="600" y1="22.57" x2="600" y2="45.11" fill="none" stroke="#002346" stroke-linecap="round" stroke-linejoin="round"></line>
  <line x1="664.19" y1="109.29" x2="686.72" y2="109.29" fill="none" stroke="#002346" stroke-linecap="round" stroke-linejoin="round"></line>
  <line x1="513.29" y1="109.29" x2="535.82" y2="109.29" fill="none" stroke="#002346" stroke-linecap="round" stroke-linejoin="round"></line>
  <line x1="645.39" y1="63.91" x2="661.32" y2="47.97" fill="none" stroke="#002346" stroke-linecap="round" stroke-linejoin="round"></line>
  <line x1="538.68" y1="170.61" x2="554.62" y2="154.68" fill="none" stroke="#002346" stroke-linecap="round" stroke-linejoin="round"></line>
  <line x1="554.62" y1="63.91" x2="538.68" y2="47.97" fill="none" stroke="#002346" stroke-linecap="round" stroke-linejoin="round"></line>
  <line x1="661.32" y1="170.61" x2="645.39" y2="154.68" fill="none" stroke="#002346" stroke-linecap="round" stroke-linejoin="round"></line>
  <ellipse cx="350.61" cy="233.02" rx="7" ry="11.5" fill="#f1b2c0" stroke="#002346" stroke-miterlimit="10"></ellipse>
  <ellipse cx="450.61" cy="233.02" rx="7" ry="11.5" fill="#f1b2c0" stroke="#002346" stroke-miterlimit="10"></ellipse>
  <rect x="353.61" y="157.52" width="93" height="136" rx="46.5" ry="46.5" fill="#f1b2c0" stroke="#002346" stroke-miterlimit="10"></rect>
  <path d="M387.04,186.61s-2.47,5.19-5.83,13.73-11.93,17.1-16.84,19c-3.17,1.18-6.44,2.07-9.77,2.66,0,0,3.06,5.9,.09,5.92s-5.57-7.73-5.57-7.73c0,0-9.91-25.81-3.74-46.57,3.57-12.2,12.69-22,24.6-26.45,0,0,9.57-14.13,36.49-11s40.5,14.12,49.92,42.53c9.42,28.41-4.67,44-6.61,45.91s-.66,6.29-2.57,7.42-4.23-4.78-4.23-4.78c0,0-13.53-4-24.29-11.65s-23.33-24.65-26.13-28.3-5.52-.69-5.52-.69Z" fill="#002346" stroke="#002346" stroke-miterlimit="10"></path>
  <path d="M428.57,659.37c20.89,3,24.24-1.85,24.76-3.8,.12-.45,.53-.76,1-.76,2.51-.01,9.85-.09,16.84-.51,8.62-.51,12.68,2.53,21.3,2.53s-4.08-8.1-4.08-8.1c0,0-45.25-30.57-50.35-36.66s-13.59-13-21.2-16.09-13.18-7.1-27.89,0-16,16.8-19.14,19.05c-2.31,1.66-27.7,19.72-40.9,29.11-5.23,3.72-10.91,6.75-16.91,9.03l-3.41,1.3c-.41,.15-.28,.76,.15,.74,5.92-.29,21.03-1.09,25.49-1.89s13.2-.95,16.99-.99c.42,0,.55,.56,.17,.74-3.38,1.65-10.42,5.44-4.48,5.83,7.61,.5,21.81-5.07,25.36-5.58s6.09-.5,18.26,3c5.33,1.53,8.5,2.53,10.6,3.15,3.98,1.18,8.41-.06,10.89-3.39,.86-1.15,1.49-2.54,1.58-4.18,0-.15,.17-.23,.28-.13,1.36,1.23,7.58,6.57,14.68,7.59Z" fill="#e6e7e8" stroke="#002346" stroke-miterlimit="10"></path>
  <path d="M375.97,612.89c-1.2-2.79-7.15-8.42-10.87-11.77-1.98-1.79-3.36-4.15-3.93-6.76l-1.09-4.9-16.55-90s-6.67-2.22-19.63-.74-15.19,8.52-15.19,8.52c0,0,30.74,81.71,35.56,92.45h.08c.6,1.94,2.11,6.76,2.98,9.4,.31,.94,.69,1.85,1.14,2.73l3.35,6.58c1.59,3.13,3.95,5.84,6.95,7.67s6.95,3.14,10.38,.87c6.87-4.54,8.58-9.94,6.82-14.05Z" fill="#f1b2c0" stroke="#002346" stroke-miterlimit="10"></path>
  <path d="M492.54,506.46c-1-1.88-4.53-6.56-14.83-7.74-9.77-1.11-16-.13-18.42,.43-.74,.16-1.3,.76-1.4,1.51l-15.18,95.23h0l-.62,2.8c-.87,3.92-2.91,7.48-5.87,10.2-3.65,3.36-8.36,7.99-9.4,10.44-1.76,4.11-.06,9.46,6.81,14,3.43,2.27,7.33,.98,10.38-.87s5.35-4.53,6.94-7.66l2.94-5.78c.79-1.55,1.38-3.2,1.73-4.91,1.03-5.01,2.64-14.46,2.64-14.46h0c6.55-16,32.06-85.48,34.37-91.75,.17-.47,.13-.99-.09-1.43Z" fill="#f1b2c0" stroke="#002346" stroke-miterlimit="10"></path>
  <g>
    <path d="M318.31,572.14c.2,2.34,.51,4.98,.96,7.67,0,0,9.48-31.02,40.64-27.02l-6.12-13.48-5.06-5.06c-10.16,5.28-20,3.69-26.72,17.32-3.14,6.36-4.31,13.51-3.69,20.58Z" fill="#7cd295" stroke="#002346" stroke-miterlimit="10"></path>
    <path d="M406.16,542.44c-28.12,.03-32.32-41.41-3.91-75.9,.09-.11,.27-.04,.26,.11-1.12,11.76,33.4,53.9,10.78,73.19-1.99,1.69-4.51,2.6-7.12,2.6Z" fill="#7cd295" stroke="#002346" stroke-miterlimit="10"></path>
    <path d="M404.46,526.96c-17.74-10.53-13.74-42.1,38.83-60.73,.1-.03,.2,.06,.16,.15-.6,1.71-4.08,12.88-5.91,44.4-.49,8.4-12.49,28.4-33.08,16.17Z" fill="#7cd295" stroke="#002346" stroke-miterlimit="10"></path>
    <path d="M447.67,565.08c-15.18-12.36-36.76,4.61-15.19,25.77,0,0,11.05,10.12,15.65,20.71,0,0,21.17-15.19,21.63-35.9,0,0,0-21.17-22.09-10.59Z" fill="#7cd295" stroke="#002346" stroke-miterlimit="10"></path>
    <path d="M318.83,562.52c23.85-42.04,34.03,1.19,69.93-4.8,.54-48.33-69.4-46.3-69.93,4.8Z" fill="#7cd295" stroke="#002346" stroke-miterlimit="10"></path>
    <path d="M406.83,580.52s10-42,35.45-21.63c3.58,2.86,5.82,7.08,6.91,11.53,1.69,6.9,3.83,19.46,1.14,31.6" fill="none" stroke="#002346" stroke-linecap="round" stroke-linejoin="round"></path>
    <path d="M439.33,470.02s-46.72,30.51-30.72,122.51" fill="none" stroke="#002346" stroke-linecap="round" stroke-linejoin="round"></path>
    <path d="M337.33,535.02s60.28-3.49,62.28,57.51" fill="none" stroke="#002346" stroke-linecap="round" stroke-linejoin="round"></path>
  </g>
  <g>
    <path d="M532.41,621.38c.16,1.81,.39,3.85,.74,5.92,0,0,7.32-23.95,31.38-20.86l-4.73-10.41-3.91-3.91c-7.85,4.07-15.44,2.85-20.63,13.37-2.42,4.91-3.33,10.43-2.85,15.89Z" fill="#7cd295" stroke="#002346" stroke-miterlimit="10"></path>
    <path d="M600.24,598.44c-21.71,.03-24.96-31.97-3.02-58.61,.07-.09,.21-.03,.2,.09-.87,9.08,25.79,41.62,8.32,56.51-1.53,1.31-3.48,2-5.5,2.01Z" fill="#7cd295" stroke="#002346" stroke-miterlimit="10"></path>
    <path d="M598.92,586.49c-13.7-8.13-10.61-32.51,29.98-46.89,.08-.03,.15,.04,.13,.12-.46,1.32-3.15,9.95-4.56,34.28-.38,6.49-9.64,21.93-25.54,12.49Z" fill="#7cd295" stroke="#002346" stroke-miterlimit="10"></path>
    <path d="M632.29,615.93c-11.72-9.55-28.38,3.56-11.73,19.9,0,0,8.53,7.82,12.08,15.99,0,0,16.35-11.73,16.7-27.72,0,0,0-16.35-17.06-8.17Z" fill="#7cd295" stroke="#002346" stroke-miterlimit="10"></path>
    <path d="M532.81,613.95c18.41-32.46,26.28,.92,54-3.71,.42-37.32-53.59-35.75-54,3.71Z" fill="#7cd295" stroke="#002346" stroke-miterlimit="10"></path>
    <path d="M600.75,627.85s7.72-32.43,27.37-16.7c2.76,2.21,4.5,5.47,5.34,8.91,1.3,5.32,2.96,15.02,.88,24.4" fill="none" stroke="#002346" stroke-linecap="round" stroke-linejoin="round"></path>
    <path d="M625.85,542.53s-36.07,23.55-23.72,94.59" fill="none" stroke="#002346" stroke-linecap="round" stroke-linejoin="round"></path>
    <path d="M547.09,592.72s46.55-2.7,48.09,44.4" fill="none" stroke="#002346" stroke-linecap="round" stroke-linejoin="round"></path>
    <path d="M567.11,645.19c-.77,0-.99-1.04-.3-1.36,6.99-3.23,24.55-11.16,28.92-11.44s21.88,8.08,29.08,11.62c.77,.38,.49,1.53-.36,1.52l-57.34-.33Z" fill="#e6e7e8" stroke="#002346" stroke-miterlimit="10"></path>
  </g>
  <g>
    <path d="M130.41,621.38c.16,1.81,.39,3.85,.74,5.92,0,0,7.32-23.95,31.38-20.86l-4.73-10.41-3.91-3.91c-7.85,4.07-15.44,2.85-20.63,13.37-2.42,4.91-3.33,10.43-2.85,15.89Z" fill="#7cd295" stroke="#002346" stroke-miterlimit="10"></path>
    <path d="M198.24,598.44c-21.71,.03-24.96-31.97-3.02-58.61,.07-.09,.21-.03,.2,.09-.87,9.08,25.79,41.62,8.32,56.51-1.53,1.31-3.48,2-5.5,2.01Z" fill="#7cd295" stroke="#002346" stroke-miterlimit="10"></path>
    <path d="M196.92,586.49c-13.7-8.13-10.61-32.51,29.98-46.89,.08-.03,.15,.04,.13,.12-.46,1.32-3.15,9.95-4.56,34.28-.38,6.49-9.64,21.93-25.54,12.49Z" fill="#7cd295" stroke="#002346" stroke-miterlimit="10"></path>
    <path d="M230.29,615.93c-11.72-9.55-28.38,3.56-11.73,19.9,0,0,8.53,7.82,12.08,15.99,0,0,16.35-11.73,16.7-27.72,0,0,0-16.35-17.06-8.17Z" fill="#7cd295" stroke="#002346" stroke-miterlimit="10"></path>
    <path d="M130.81,613.95c18.41-32.46,26.28,.92,54-3.71,.42-37.32-53.59-35.75-54,3.71Z" fill="#7cd295" stroke="#002346" stroke-miterlimit="10"></path>
    <path d="M198.75,627.85s7.72-32.43,27.37-16.7c2.76,2.21,4.5,5.47,5.34,8.91,1.3,5.32,2.96,15.02,.88,24.4" fill="none" stroke="#002346" stroke-linecap="round" stroke-linejoin="round"></path>
    <path d="M223.85,542.53s-36.07,23.55-23.72,94.59" fill="none" stroke="#002346" stroke-linecap="round" stroke-linejoin="round"></path>
    <path d="M145.09,592.72s46.55-2.7,48.09,44.4" fill="none" stroke="#002346" stroke-linecap="round" stroke-linejoin="round"></path>
    <path d="M165.11,645.19c-.77,0-.99-1.04-.3-1.36,6.99-3.23,24.55-11.16,28.92-11.44s21.88,8.08,29.08,11.62c.77,.38,.49,1.53-.36,1.52l-57.34-.33Z" fill="#e6e7e8" stroke="#002346" stroke-miterlimit="10"></path>
  </g>
  <g>
    <path d="M226.63,124.22c-23,27-48-1-48-1-24,25-49,1-49,1-8.61,8.61-17.03,4.55-22.23,.15-4.84-4.09-6.48-11-3.51-16.59,5.81-10.93,23.25-7.06,23.25-7.06,0,0-1.87-3.62-2.37-8.25-.89-8.23,5.58-15.39,13.85-15.77,4.04-.19,8.6,.63,11.03,4.52,0,0,2.97-10.7,14.87-15.14,8.26-3.09,17.61-1.8,24.79,3.33,3.37,2.4,6.81,5.86,9.35,10.81,0,0,23-8,30,14,0,0,17-3,17,13,0,0,11-2,17,6,0,0,10.1-5.89,14.08,2.4,.91,1.89,1.15,4.09,.41,6.06-1.02,2.72-3.99,5.58-12.49,2.54,0,0-17,20-38,0Z" fill="#fff" stroke="#002346" stroke-miterlimit="10"></path>
    <path d="M127.13,100.72s3.48,2.8,6.48,2.8" fill="none" stroke="#002346" stroke-linecap="round" stroke-linejoin="round"></path>
    <path d="M149.63,81.22s2.48,4.8,1.48,10.8" fill="none" stroke="#002346" stroke-linecap="round" stroke-linejoin="round"></path>
    <path d="M198.63,80.22s4.2,8.2-3.16,20.5" fill="none" stroke="#002346" stroke-linecap="round" stroke-linejoin="round"></path>
    <path d="M228.63,94.22s-7.52,.8-10.52,9.8" fill="none" stroke="#002346" stroke-linecap="round" stroke-linejoin="round"></path>
    <path d="M245.63,107.22s-.41,5.84-3.96,7.82" fill="none" stroke="#002346" stroke-linecap="round" stroke-linejoin="round"></path>
    <path d="M262.63,113.22s2.48,1.8,2.48,5.8" fill="none" stroke="#002346" stroke-linecap="round" stroke-linejoin="round"></path>
  </g>
  <g>
    <path d="M717.63,311.22c-23,27-48-1-48-1-24,25-49,1-49,1-8.61,8.61-17.03,4.55-22.23,.15-4.84-4.09-6.48-11-3.51-16.59,5.81-10.93,23.25-7.06,23.25-7.06,0,0-1.87-3.62-2.37-8.25-.89-8.23,5.58-15.39,13.85-15.77,4.04-.19,8.6,.63,11.03,4.52,0,0,2.97-10.7,14.87-15.14,8.26-3.09,17.61-1.8,24.79,3.33,3.37,2.4,6.81,5.86,9.35,10.81,0,0,23-8,30,14,0,0,17-3,17,13,0,0,11-2,17,6,0,0,10.1-5.89,14.08,2.4,.91,1.89,1.15,4.09,.41,6.06-1.02,2.72-3.99,5.58-12.49,2.54,0,0-17,20-38,0Z" fill="#fff" stroke="#002346" stroke-miterlimit="10"></path>
    <path d="M618.13,287.72s3.48,2.8,6.48,2.8" fill="none" stroke="#002346" stroke-linecap="round" stroke-linejoin="round"></path>
    <path d="M640.63,268.22s2.48,4.8,1.48,10.8" fill="none" stroke="#002346" stroke-linecap="round" stroke-linejoin="round"></path>
    <path d="M689.63,267.22s4.2,8.2-3.16,20.5" fill="none" stroke="#002346" stroke-linecap="round" stroke-linejoin="round"></path>
    <path d="M719.63,281.22s-7.52,.8-10.52,9.8" fill="none" stroke="#002346" stroke-linecap="round" stroke-linejoin="round"></path>
    <path d="M736.63,294.22s-.41,5.84-3.96,7.82" fill="none" stroke="#002346" stroke-linecap="round" stroke-linejoin="round"></path>
    <path d="M753.63,300.22s2.48,1.8,2.48,5.8" fill="none" stroke="#002346" stroke-linecap="round" stroke-linejoin="round"></path>
  </g>
  <g>
    <path d="M239.2,238.83c-10.18,11.95-21.24-.44-21.24-.44-10.62,11.06-21.68,.44-21.68,.44-3.81,3.81-7.53,2.01-9.84,.07-2.14-1.81-2.87-4.87-1.55-7.34,2.57-4.84,10.29-3.12,10.29-3.12,0,0-.83-1.6-1.05-3.65-.39-3.64,2.47-6.81,6.13-6.98,1.79-.08,3.8,.28,4.88,2,0,0,1.31-4.73,6.58-6.7,3.66-1.37,7.79-.8,10.97,1.47,1.49,1.06,3.01,2.59,4.14,4.78,0,0,10.18-3.54,13.27,6.19,0,0,7.52-1.33,7.52,5.75,0,0,4.87-.88,7.52,2.65,0,0,4.47-2.61,6.23,1.06,.4,.84,.51,1.81,.18,2.68-.45,1.2-1.77,2.47-5.53,1.13,0,0-7.52,8.85-16.81,0Z" fill="#fff" stroke="#002346" stroke-miterlimit="10"></path>
    <path d="M195.17,228.43s1.54,1.24,2.87,1.24" fill="none" stroke="#002346" stroke-linecap="round" stroke-linejoin="round"></path>
    <path d="M205.13,219.8s1.1,2.13,.66,4.78" fill="none" stroke="#002346" stroke-linecap="round" stroke-linejoin="round"></path>
    <path d="M226.81,219.36s1.86,3.63-1.4,9.07" fill="none" stroke="#002346" stroke-linecap="round" stroke-linejoin="round"></path>
    <path d="M240.08,225.55s-3.33,.36-4.65,4.34" fill="none" stroke="#002346" stroke-linecap="round" stroke-linejoin="round"></path>
    <path d="M247.61,231.3s-.18,2.59-1.75,3.46" fill="none" stroke="#002346" stroke-linecap="round" stroke-linejoin="round"></path>
    <path d="M255.13,233.96s1.1,.8,1.1,2.57" fill="none" stroke="#002346" stroke-linecap="round" stroke-linejoin="round"></path>
  </g>
</svg>
